<svg xmlns="http://www.w3.org/2000/svg" viewBox="-276 598 552 388" width="300">
    <path fill="#58B6E6" d="M-210.2 969.1l-47.7-61.2s-11.8-12-9.8-28.4c1.5-11.5 8.1-15.4 10.8-17.1 5.4-3.4 410.8-256.6 410.8-256.6s19.1-13.2 36.5-4.4c17.6 9.1 20.8 25.2 21.1 27.2.2 2 15.9 114.3 15.9 114.3s2.4 18.6-8.6 37.2c-10.8 18.6-22.5 24.2-25.7 26.2-3.2 1.7-361.6 177.5-361.6 177.5s-9.8 4.4-22.3-.5c-12.8-4.6-17.7-12-19.4-14.2"/><path fill="#1C73BA" d="M-231.8 929.9l-37.5-68.1s-9.5-13.7-5.1-29.6c3.2-11.3 10.5-14 13.5-15.2 5.9-2.4 446.5-187.8 446.5-187.8s20.8-10 36.7 1.5c15.9 11.8 16.6 28.2 16.4 30.1 0 2-2.7 115.3-2.7 115.3s-.5 18.6-14.2 35.5c-13.7 16.6-26.2 20.3-29.6 21.5-3.4 1.2-385.3 117.5-385.3 117.5s-10.3 2.7-22-3.9c-11.5-6.5-15.2-14.3-16.7-16.8"/><path opacity=".95" fill="#278ACA" d="M-247.7 883.7l-25.2-73.4s-7.1-15.2 0-30.1c5.1-10.5 12.7-12 15.9-12.5 6.1-1.5 472.2-108 472.2-108s22.3-6.4 36 7.8 11.5 30.6 11 32.6-22.5 113.1-22.5 113.1-3.9 18.4-20.3 32.3c-16.4 14-29.1 15.7-32.8 16.2-3.7.7-399.8 49.2-399.8 49.2s-10.5 1-21.1-7.8c-10.5-8.4-12.4-17-13.4-19.4"/><path opacity=".9" fill="#00ABE8" d="M-260.2 840.1l-11.8-76.6s-4.4-16.2 5.4-29.6c6.9-9.3 14.7-9.5 17.9-9.5 6.4-.2 483.7-22.8 483.7-22.8s23-2.2 34 14.2 5.9 32.1 5.1 34c-.7 2-42.1 107.5-42.1 107.5s-7.1 17.4-25.7 28.4-31.6 10.3-35.3 10c-3.7 0-402.2-22.3-402.2-22.3s-10.5-1-19.3-11.3c-8.5-10.5-9.2-19.3-9.7-22"/><g fill="#FFF"><path d="M-164.9 756.6c.7-1.2 1.5-2.2 3.2-2.2 2 0 3.2 1.2 3.2 3.2v69.3c0 1.7-1.2 3.2-3.2 3.2-1.7 0-3.2-1.5-3.2-3.2v-56.5l-26.9 58c-.5 1.2-1.5 2-3.2 2-1.7 0-2.4-.7-3.2-2l-26.9-58v56.8c0 1.7-1.2 3.2-3.2 3.2s-3.2-1.5-3.2-3.2v-69.5c0-2 1.2-3.2 3.2-3.2 1.7 0 2.4.7 3.2 2.2l29.9 64.4 30.3-64.5z"/><path d="M-162 831.3c-2.2 0-4.2-1.7-4.2-4.2v-52.4l-25.2 54.1c-.7 1.7-2 2.4-3.9 2.4-2 0-3.2-.7-3.9-2.4l-25.2-54.1v52.4c0 2.4-1.7 4.2-4.2 4.2-2.4 0-4.2-1.7-4.2-4.2v-69.5c0-2.4 1.7-4.2 4.2-4.2 2.4 0 3.4 1.2 3.9 2.7l29.4 62.4 29.4-62.4c.7-1.2 1.7-2.7 3.9-2.7 2.4 0 4.2 1.7 4.2 4.2v69.3c0 2.7-1.8 4.4-4.2 4.4m-2.2-65.1v61c0 1.2 1 2.2 2.2 2.2 1.5 0 2.2-1.2 2.2-2.2v-69.5c0-1.5-1-2.2-2.2-2.2-1.2 0-1.7.5-2.2 1.5l-31.1 66.1-31.1-66.1c-.5-1.2-1.2-1.5-2.2-1.5-1.5 0-2.2 1-2.2 2.2V827c0 1.2.7 2.2 2.2 2.2 1.2 0 2.2-1 2.2-2.2v-60.7l28.9 61.7c.5 1 1.2 1.5 2.2 1.5 1.2 0 1.7-.5 2.2-1.5l28.9-61.8zM-96.2 826.9c0 2-1.5 3.4-3.4 3.4-2 0-3.4-1.5-3.4-3.4V821c-3.9 5.9-10.5 9.5-18.8 9.5-16.2 0-25.2-12-25.2-25.5 0-15.4 11.3-25.5 25.5-25.5 14.4 0 25.2 10.3 25.2 25.5v21.8h.1zm-25.2-41.4c-11.3 0-18.8 8.6-18.8 19.6 0 11.3 7.3 19.6 18.8 19.6 10.8 0 18.6-9.1 18.6-19.6 0-11.3-7.8-19.6-18.6-19.6"/><path d="M-121.6 831.8c-17.9 0-26.2-13.7-26.2-26.4 0-15.4 11-26.4 26.4-26.4 15.2 0 26.2 11.3 26.2 26.4v21.5c0 2.4-2 4.4-4.4 4.4-2.4 0-4.4-2-4.4-4.4V824c-4.2 5.1-10.3 7.8-17.6 7.8m.2-50.9c-14.2 0-24.5 10.3-24.5 24.5 0 11.8 7.6 24.5 24.2 24.5 7.6 0 14-3.2 18.1-9.1l1.7-2.4v8.8c0 1.5 1 2.4 2.4 2.4s2.4-1 2.4-2.4v-21.5c0-14.8-10.1-24.8-24.3-24.8m0 45c-11.8 0-19.8-8.6-19.8-20.6s8.3-20.6 19.8-20.6c11.3 0 19.6 8.6 19.6 20.6 0 11.5-8.6 20.6-19.6 20.6m0-39.4c-10.5 0-17.9 7.6-17.9 18.6s7.3 18.6 17.9 18.6c9.8 0 17.6-8.3 17.6-18.6.1-10.8-7.3-18.6-17.6-18.6M-61.4 781.1c1.5 0 2.7 1.2 2.7 2.7s-1.2 2.7-2.7 2.7h-11.3v40.1c0 2-1.5 3.4-3.4 3.4-2 0-3.4-1.5-3.4-3.4v-39.9h-9.8c-1.5 0-2.7-1.2-2.7-2.7 0-1.5 1.2-2.7 2.7-2.7h9.8v-15.7c0-2 1.5-3.4 3.4-3.4 2 0 3.4 1.5 3.4 3.4v15.7h11.3v-.2z"/><path d="M-76.1 831.3c-2.4 0-4.4-2-4.4-4.4v-39.2h-9.1c-2.2 0-3.7-1.7-3.7-3.7 0-2.2 1.7-3.7 3.7-3.7h9.1v-14.7c0-2.4 2-4.4 4.4-4.4 2.4 0 4.4 2 4.4 4.4v14.7h10.3c2 0 3.7 1.7 3.7 3.7s-1.7 3.7-3.7 3.7h-10.3v39.2c0 2.4-1.9 4.4-4.4 4.4m-13.2-49.2c-1 0-1.7.7-1.7 1.7s.7 1.7 1.7 1.7h10.8v41.1c0 1.5 1 2.4 2.4 2.4s2.4-1 2.4-2.4v-40.9h12.2c1 0 1.7-.7 1.7-1.7s-.7-1.7-1.7-1.7h-12.2v-16.4c0-1.5-1-2.4-2.4-2.4s-2.4 1-2.4 2.4v16.4h-10.8v-.2zM-8 826.9c0 2-1.5 3.4-3.4 3.4s-3.4-1.5-3.4-3.4v-24.5c0-10-5.1-16.4-15.7-16.4-9.5 0-16.6 6.9-16.6 17.9v23.3c0 2-1.5 3.4-3.4 3.4s-3.4-1.5-3.4-3.4v-69.3c0-2 1.5-3.4 3.4-3.4s3.4 1.5 3.4 3.4v31.6c3.7-6.1 10-9.5 18.1-9.5 13 0 20.8 9.5 20.8 22.3V827h.2z"/><path d="M-11.5 831.3c-2.4 0-4.4-2-4.4-4.4v-24.5c0-10-5.1-15.4-14.7-15.4-9.3 0-15.7 6.9-15.7 16.9v23.3c0 2.4-2 4.4-4.4 4.4-2.4 0-4.4-2-4.4-4.4v-69.3c0-2.4 2-4.4 4.4-4.4 2.4 0 4.4 2 4.4 4.4v28.6c3.9-4.9 9.8-7.3 17.1-7.3 13 0 21.8 9.3 21.8 23.3v24.7c.1 2.1-1.6 4.1-4.1 4.1M-30.3 785c10.5 0 16.4 6.4 16.4 17.4v24.7c0 1.5 1 2.4 2.4 2.4s2.4-1 2.4-2.4v-25c0-12.7-8.1-21.3-19.8-21.3-7.8 0-14 3.2-17.4 9.1l-1.7 2.9v-35c0-1.5-1-2.4-2.4-2.4-1.5 0-2.4 1-2.4 2.4v69c0 1.5 1 2.4 2.4 2.4 1.5 0 2.4-1 2.4-2.4v-23.3c.1-10.9 7.2-18.5 17.7-18.5M7.9 830.3c-2 0-3.4-1.5-3.4-3.4v-69c0-2 1.5-3.4 3.4-3.4 2 0 3.4 1.5 3.4 3.4v69c0 1.9-1.5 3.4-3.4 3.4"/><path d="M7.9 831.3c-2.4 0-4.4-2-4.4-4.4v-69c0-2.4 2-4.4 4.4-4.4 2.4 0 4.2 2 4.2 4.4v69c.2 2.4-1.8 4.4-4.2 4.4m0-75.9c-1.5 0-2.4 1-2.4 2.4v69c0 1.5 1 2.4 2.4 2.4s2.4-1 2.4-2.4v-69c0-1.4-1-2.4-2.4-2.4M69.6 804.8c0 1.5-1.2 2.7-2.7 2.7H28.2c.2 8.8 7.1 17.6 18.6 17.6 6.1 0 11-2.2 15.2-7.1.5-.7 1.2-1.5 2.4-1.5 1.7 0 2.7 1.2 2.7 2.7 0 .7-.2 1.2-.7 2-3.7 5.1-11 9.3-19.8 9.3-15.9 0-25.5-12-25.5-25.5s10-25.5 24.7-25.5c14.2.4 23.8 10.9 23.8 25.3m-23.3-19.5c-9.8 0-16.9 7.3-17.9 16.6h35c-.7-9.3-7.5-16.6-17.1-16.6"/><path d="M47 831.8c-17.4 0-26.4-13.2-26.4-26.4 0-14.7 11.3-26.4 25.7-26.4 14.2 0 24.2 10.8 24.2 25.9 0 2-1.7 3.7-3.7 3.7H29.4c.7 7.8 6.9 15.7 17.6 15.7 6.1 0 10.5-2.2 14.4-6.6.7-.7 1.7-1.7 3.2-1.7 2.2 0 3.7 1.7 3.7 3.7 0 1-.2 1.7-.7 2.4-4.4 5.8-12.2 9.7-20.6 9.7m-.7-50.9c-13.5 0-23.7 10.8-23.7 24.5 0 12.2 8.3 24.5 24.5 24.5 7.8 0 14.9-3.4 19.1-9.1.2-.5.5-1 .5-1.5 0-1-.5-1.7-1.7-1.7-.7 0-1.2.5-1.7 1-4.2 4.9-9.3 7.3-15.9 7.3-12.5 0-19.3-9.3-19.6-18.4v-1H67c1 0 1.7-.7 1.7-1.7.1-13.9-9.4-23.9-22.4-23.9m18.4 22H27.5v-1c1-10 8.8-17.4 18.8-17.4 9.8 0 17.1 7.1 18.1 17.4l.3 1zm-35-2h32.8c-1.2-8.6-7.8-14.7-16.2-14.7-8.6 0-15.4 6.2-16.6 14.7M102.6 781.1c1.5 0 2.7 1.2 2.7 2.7s-1.2 2.7-2.7 2.7H91.4v40.1c0 2-1.5 3.4-3.4 3.4-2 0-3.4-1.5-3.4-3.4v-39.9h-9.8c-1.5 0-2.7-1.2-2.7-2.7 0-1.5 1.2-2.7 2.7-2.7h9.8v-15.7c0-2 1.5-3.4 3.4-3.4 2 0 3.4 1.5 3.4 3.4v15.7h11.3v-.2z"/><path d="M87.9 831.3c-2.4 0-4.4-2-4.4-4.4v-39.2h-9.1c-2.2 0-3.7-1.7-3.7-3.7 0-2.2 1.7-3.7 3.7-3.7h9.1v-14.7c0-2.4 2-4.4 4.4-4.4s4.4 2 4.4 4.4v14.7h10.3c2 0 3.7 1.7 3.7 3.7s-1.7 3.7-3.7 3.7H92.3v39.2c0 2.4-1.9 4.4-4.4 4.4m-13.2-49.2c-1 0-1.7.7-1.7 1.7s.7 1.7 1.7 1.7h10.8v41.1c0 1.5 1 2.4 2.4 2.4s2.4-1 2.4-2.4v-40.9h12.2c1 0 1.7-.7 1.7-1.7s-.7-1.7-1.7-1.7H90.4v-16.4c0-1.5-1-2.4-2.4-2.4s-2.4 1-2.4 2.4v16.4H74.7v-.2zM113.6 762.2c2.4 0 4.2 2 4.2 4.2 0 2.4-2 4.2-4.2 4.2-2.4 0-4.2-2-4.2-4.2.1-2.2 2-4.2 4.2-4.2m0 68.1c-2 0-3.4-1.5-3.4-3.4v-43.3c0-2 1.5-3.4 3.4-3.4 2 0 3.4 1.5 3.4 3.4v43.3c.1 1.9-1.4 3.4-3.4 3.4"/><path d="M113.6 831.3c-2.4 0-4.4-2-4.4-4.4v-43.3c0-2.4 2-4.4 4.4-4.4 2.4 0 4.4 2 4.4 4.4v43.3c0 2.4-1.9 4.4-4.4 4.4m0-50.2c-1.5 0-2.4 1-2.4 2.4v43.3c0 1.5 1 2.4 2.4 2.4 1.5 0 2.4-1 2.4-2.4v-43.3c.1-1.2-.9-2.4-2.4-2.4m0-9.5c-2.9 0-5.1-2.2-5.1-5.1 0-2.9 2.2-5.1 5.1-5.1s5.1 2.2 5.1 5.1c.1 2.8-2.1 5.1-5.1 5.1m0-8.4c-1.7 0-3.2 1.5-3.2 3.2 0 1.7 1.5 3.2 3.2 3.2s3.2-1.5 3.2-3.2c.3-1.7-1.2-3.2-3.2-3.2M172.4 789.2c.5.7.7 1.2.7 2 0 1.7-1.5 2.7-3.2 2.7-1.2 0-1.7-.7-2.4-1.2-3.9-4.9-8.1-7.1-14.7-7.1-10.8 0-18.8 8.8-18.8 19.6 0 11 7.8 19.6 18.8 19.6 6.6 0 10.8-2.2 14.7-7.1.5-.7 1.2-1.2 2.4-1.2 1.7 0 3.2 1.2 3.2 2.7 0 .7-.2 1.2-.7 2-3.4 4.9-10.5 9.3-19.6 9.3-14.4 0-25.5-10.8-25.5-25.5 0-14.4 10.8-25.5 25.5-25.5 9.1.4 16.2 4.5 19.6 9.7"/><path d="M152.8 831.8c-14.9 0-26.4-11.3-26.4-26.4 0-14.9 11.3-26.4 26.4-26.4 10.3 0 17.1 5.1 20.3 9.8.5 1 .7 1.7.7 2.4 0 2.2-1.7 3.7-4.2 3.7-1.7 0-2.7-1.2-3.2-1.7-3.9-4.9-7.8-6.6-14-6.6-10.3 0-17.9 8.1-17.9 18.6 0 10.8 7.6 18.6 17.9 18.6 6.1 0 10-2 14-6.6.5-.5 1.5-1.7 3.2-1.7 2.4 0 4.2 1.7 4.2 3.7 0 1-.2 1.7-.7 2.4-3.2 5-10 10.2-20.3 10.2m0-50.9c-14 0-24.5 10.5-24.5 24.5s10.5 24.5 24.5 24.5c9.5 0 15.9-4.9 18.8-8.8.5-.5.5-1 .5-1.5 0-1.2-1.2-1.7-2.2-1.7-.7 0-1 .2-1.7 1-4.4 5.1-8.8 7.3-15.4 7.3-11.3 0-19.8-8.8-19.8-20.6s8.6-20.6 19.8-20.6c6.6 0 11 2.2 15.4 7.3.5.7 1 1 1.7 1 1.2 0 2.2-.7 2.2-1.7 0-.5-.2-1-.5-1.5-2.6-4.6-9.3-9.2-18.8-9.2M200.5 830.8c-7.3 0-14-2.4-18.6-6.4-1-.7-1.2-1.7-1.2-2.4 0-1.5 1.2-2.4 2.4-2.4s2 .5 2.4 1c4.2 3.4 9.8 5.1 15.2 5.1 7.8 0 12.5-3.2 12.5-8.1 0-5.6-5.6-7.3-12.7-9.3-14.7-4.2-19.3-8.6-19.3-15.7 0-8.6 7.6-13 19.1-13 4.9 0 10.3 1.2 14.9 3.9 1.7 1 2.9 2 2.9 3.4 0 1.5-1 2.4-2.7 2.4-1 0-1.7-.5-2.7-1-3.7-2-8.3-3.4-12.7-3.4-7.3 0-12.5 2.2-12.5 7.3 0 4.7 3.2 6.9 13.5 9.8 11 3.2 18.6 6.1 18.6 14.9.3 8.3-6.6 13.9-19.1 13.9"/><path d="M200.5 831.8c-7.3 0-14.2-2.4-19.3-6.6-1-.7-1.7-2-1.7-3.2 0-2 1.5-3.4 3.4-3.4 1.5 0 2.4.7 3.2 1.2 3.9 3.2 9.3 4.9 14.7 4.9 7.1 0 11.5-2.7 11.5-7.1 0-4.7-4.7-6.1-12-8.3-14.4-3.9-20.1-8.6-20.1-16.6 0-8.8 7.3-14 20.1-14 5.1 0 10.8 1.5 15.4 3.9 1.7.7 3.4 2 3.4 4.2 0 2-1.5 3.4-3.7 3.4-1.2 0-2-.5-2.9-1-3.9-2.2-8.3-3.2-12.2-3.2-4.4 0-11.5.7-11.5 6.4 0 3.7 2 5.9 13 9.1 11.3 3.4 19.3 6.4 19.3 15.9-.2 8.7-8.3 14.4-20.6 14.4m-17.3-11.5c-1 0-1.7.5-1.7 1.5 0 .5.2 1.2 1 1.7 4.7 3.9 11.3 6.1 18.1 6.1 11.3 0 18.4-4.9 18.4-12.5 0-8.1-7.1-10.8-17.9-14-9.5-2.7-14.2-5.1-14.2-10.8 0-5.4 4.9-8.1 13.5-8.1 4.2 0 9.1 1.2 13.2 3.4 1 .5 1.5.7 2.2.7 1.2 0 1.7-.5 1.7-1.7 0-.5-.2-1.5-2.4-2.4-4.4-2.4-9.5-3.7-14.7-3.7-11.5 0-18.1 4.4-18.1 12 0 5.6 3.2 10.5 18.8 14.7 6.9 2 13.5 3.7 13.5 10 0 5.6-5.1 9.1-13.5 9.1-5.6 0-11.5-2-15.9-5.4-.8-.4-1.3-.6-2-.6"/></g></svg>