<?xml version="1.0" encoding="UTF-8" standalone="no"?>
<!-- Created with Inkscape (http://www.inkscape.org/) -->

<svg
   xmlns:dc="http://purl.org/dc/elements/1.1/"
   xmlns:cc="http://creativecommons.org/ns#"
   xmlns:rdf="http://www.w3.org/1999/02/22-rdf-syntax-ns#"
   xmlns:svg="http://www.w3.org/2000/svg"
   xmlns="http://www.w3.org/2000/svg"
   xmlns:sodipodi="http://sodipodi.sourceforge.net/DTD/sodipodi-0.dtd"
   xmlns:inkscape="http://www.inkscape.org/namespaces/inkscape"
   id="svg2"
   version="1.1"
   inkscape:version="0.91 r13725"
   xml:space="preserve"
   width="800"
   height="600"
   viewBox="0 0 800 600"
   sodipodi:docname="hwrld-flight-results.svg"><metadata
     id="metadata8"><rdf:RDF><cc:Work
         rdf:about=""><dc:format>image/svg+xml</dc:format><dc:type
           rdf:resource="http://purl.org/dc/dcmitype/StillImage" /><dc:title></dc:title></cc:Work></rdf:RDF></metadata><defs
     id="defs6"><clipPath
       clipPathUnits="userSpaceOnUse"
       id="clipPath16"><path
         d="M 0,0 800,0 800,600 0,600 0,0 Z"
         id="path18"
         inkscape:connector-curvature="0" /></clipPath><clipPath
       clipPathUnits="userSpaceOnUse"
       id="clipPath176"><path
         d="M 0,600 800,600 800,0 0,0 0,600 Z"
         id="path178"
         inkscape:connector-curvature="0" /></clipPath></defs><sodipodi:namedview
     pagecolor="#ffffff"
     bordercolor="#666666"
     borderopacity="1"
     objecttolerance="10"
     gridtolerance="10"
     guidetolerance="10"
     inkscape:pageopacity="0"
     inkscape:pageshadow="2"
     inkscape:window-width="1920"
     inkscape:window-height="1051"
     id="namedview4"
     showgrid="false"
     inkscape:zoom="1"
     inkscape:cx="518"
     inkscape:cy="375"
     inkscape:window-x="-9"
     inkscape:window-y="-9"
     inkscape:window-maximized="1"
     inkscape:current-layer="g10" /><g
     id="g10"
     inkscape:groupmode="layer"
     inkscape:label="hwrld-flight-results"
     transform="matrix(1.25,0,0,-1.25,0,600)"><g
       id="g12"
       transform="matrix(0.80000343,0,0,0.80000343,0,-0.00205745)"><g
         id="g14"
         clip-path="url(#clipPath16)"><g
           id="g20"
           transform="translate(10.1,579.6)"><path
             d="m 0,0 c -5.563,0.016 -10.059,4.537 -10.044,10.1 0.015,5.563 4.537,10.059 10.1,10.044 C 5.619,20.128 10.115,15.607 10.1,10.044 10.085,4.503 5.597,0.015 0.056,0 L 0,0 Z m 0,18.8 c -4.75,0 -8.6,-3.85 -8.6,-8.6 0,-4.75 3.85,-8.6 8.6,-8.6 4.75,0 8.6,3.85 8.6,8.6 0,4.75 -3.85,8.6 -8.6,8.6"
             style="fill:#00bce4;fill-opacity:1;fill-rule:nonzero;stroke:none"
             id="path22"
             inkscape:connector-curvature="0" /></g><g
           id="g24"
           transform="translate(6.9,586.2)"><path
             d="m 0,0 0,7.3 5.8,0 0,-1.2 -4.2,0 0,-1.6 3.9,0 0,-1.2 -3.9,0 0,-2 L 6,1.3 6,0.1 0,0 Z"
             style="fill:#00bce4;fill-opacity:1;fill-rule:nonzero;stroke:none"
             id="path26"
             inkscape:connector-curvature="0" /></g><g
           id="g28"
           transform="translate(48.1,579.9)"><path
             d="m 0,0 -15.6,0 c -1.297,-0.028 -2.371,1 -2.4,2.297 0,10e-4 0,0.002 0,0.003 l 0,11.4 c 0.026,1.296 1.098,2.326 2.395,2.3 0.002,0 0.003,0 0.005,0 L 0,16 c 1.296,0.029 2.371,-0.999 2.4,-2.295 0,-0.002 0,-0.003 0,-0.005 L 2.4,2.3 C 2.374,1.003 1.302,-0.026 0.005,0 0.003,0 0.002,0 0,0 m -15.7,14.4 c -0.464,0.011 -0.857,-0.338 -0.9,-0.8 l 0,-11.4 c 0.043,-0.462 0.436,-0.812 0.9,-0.8 l 15.6,0 C 0.364,1.388 0.757,1.738 0.8,2.2 l 0,11.4 c -0.043,0.462 -0.436,0.811 -0.9,0.8 l -15.6,0 z"
             style="fill:#d5003f;fill-opacity:1;fill-rule:nonzero;stroke:none"
             id="path30"
             inkscape:connector-curvature="0" /></g><g
           id="g32"
           transform="translate(45.6,594.6)"><path
             d="m 0,0 -1.5,0 0,2.8 c 0.007,0.28 -0.062,0.556 -0.2,0.8 -0.173,0.131 -0.383,0.201 -0.6,0.2 l -5.8,0 C -8.428,3.825 -8.753,3.717 -9,3.5 -9.182,3.311 -9.288,3.062 -9.3,2.8 l 0,-2.8 -1.5,0 0,2.8 c 0.008,0.635 0.258,1.244 0.7,1.7 0.536,0.509 1.264,0.764 2,0.7 l 5.8,0 C -1.675,5.241 -1.061,5.024 -0.6,4.6 -0.12,4.087 0.132,3.402 0.1,2.7 L 0,0 Z"
             style="fill:#d5003f;fill-opacity:1;fill-rule:nonzero;stroke:none"
             id="path34"
             inkscape:connector-curvature="0" /></g><g
           id="g36"
           transform="translate(36.217,590.057)"><path
             d="M 0,0 1.414,1.414 7.849,-5.02 6.435,-6.435 0,0 Z"
             style="fill:#d5003f;fill-opacity:1;fill-rule:nonzero;stroke:none"
             id="path38"
             inkscape:connector-curvature="0" /></g><g
           id="g40"
           transform="translate(36.153,584.981)"><path
             d="M 0,0 6.435,6.435 7.847,5.019 1.412,-1.416 0,0 Z"
             style="fill:#d5003f;fill-opacity:1;fill-rule:nonzero;stroke:none"
             id="path42"
             inkscape:connector-curvature="0" /></g><g
           id="g44"
           transform="translate(160.2,579.8)"><path
             d="m 0,0 -10.2,10 10.1,10.1 10.4,0 0,-9.8 L 0,0 Z M -8.1,10 0,2.1 l 8.8,8.8 0,7.7 -8.3,0 -8.6,-8.6 z"
             style="fill:#00bce4;fill-opacity:1;fill-rule:nonzero;stroke:none"
             id="path46"
             inkscape:connector-curvature="0" /></g><g
           id="g48"
           transform="translate(165.3,592.2)"><path
             d="M 0,0 C -1.491,0 -2.7,1.209 -2.7,2.7 -2.7,4.191 -1.491,5.4 0,5.4 1.491,5.4 2.7,4.191 2.7,2.7 2.637,1.236 1.464,0.063 0,0 M 0,3.8 C -0.637,3.825 -1.175,3.329 -1.2,2.692 L -1.2,2.6 C -1.201,1.937 -0.665,1.399 -0.003,1.397 0.66,1.396 1.199,1.932 1.2,2.595 L 1.2,2.6 C 1.158,3.244 0.644,3.758 0,3.8"
             style="fill:#00bce4;fill-opacity:1;fill-rule:nonzero;stroke:none"
             id="path50"
             inkscape:connector-curvature="0" /></g><g
           id="g52"
           transform="translate(34,538.8)"><path
             d="m 0,0 c 0,-1.602 -1.298,-2.9 -2.9,-2.9 l -28.2,0 c -1.602,0 -2.9,1.298 -2.9,2.9 l 0,28.2 c 0,1.602 1.298,2.9 2.9,2.9 l 28.2,0 C -1.298,31.1 0,29.802 0,28.2 L 0,0 Z"
             style="fill:#e5e5e5;fill-opacity:1;fill-rule:nonzero;stroke:none"
             id="path54"
             inkscape:connector-curvature="0" /></g><g
           id="g56"
           transform="translate(15.1,555.8)"><path
             d="m 0,0 c 1.6,1.9 3.1,4.3 5.7,4.9 4,1 7.9,-4.9 5.2,-8.2 l -9,-9.5 c -2.4,2.5 -4.8,5 -7.2,7.4 -1.4,1.4 -2.6,3 -2.6,5 0.091,2.245 1.566,4.198 3.7,4.9 2.138,0.76 4.524,0.124 6,-1.6"
             style="fill:none;stroke:#ffffff;stroke-width:2;stroke-linecap:butt;stroke-linejoin:miter;stroke-miterlimit:4;stroke-dasharray:none;stroke-opacity:1"
             id="path58"
             inkscape:connector-curvature="0" /></g><g
           id="g60"
           transform="translate(94,538.8)"><path
             d="m 0,0 c 0,-1.602 -1.298,-2.9 -2.9,-2.9 l -28.2,0 c -1.602,0 -2.9,1.298 -2.9,2.9 l 0,28.2 c 0,1.602 1.298,2.9 2.9,2.9 l 28.2,0 C -1.298,31.1 0,29.802 0,28.2 L 0,0 Z"
             style="fill:#00bce4;fill-opacity:1;fill-rule:nonzero;stroke:none"
             id="path62"
             inkscape:connector-curvature="0" /></g><g
           id="g64"
           transform="translate(75.1,555.8)"><path
             d="m 0,0 c 1.6,1.9 3.1,4.3 5.7,4.9 4,1 7.9,-4.9 5.2,-8.2 l -9,-9.5 c -2.4,2.5 -4.8,5 -7.2,7.4 -1.4,1.4 -2.6,3 -2.6,5 0.091,2.245 1.566,4.198 3.7,4.9 2.138,0.76 4.524,0.124 6,-1.6"
             style="fill:none;stroke:#ffffff;stroke-width:2;stroke-linecap:butt;stroke-linejoin:miter;stroke-miterlimit:4;stroke-dasharray:none;stroke-opacity:1"
             id="path66"
             inkscape:connector-curvature="0" /></g><g
           id="g68"
           transform="translate(78.1,579.9)"><path
             d="m 0,0 -15.6,0 c -1.297,-0.028 -2.371,1 -2.4,2.297 0,10e-4 0,0.002 0,0.003 l 0,11.4 c 0.026,1.296 1.098,2.326 2.395,2.3 0.002,0 0.003,0 0.005,0 L 0,16 c 1.296,0.029 2.371,-0.999 2.4,-2.295 0,-0.002 0,-0.003 0,-0.005 L 2.4,2.3 C 2.374,1.003 1.302,-0.026 0.005,0 0.003,0 0.002,0 0,0 m -15.7,14.4 c -0.464,0.011 -0.857,-0.338 -0.9,-0.8 l 0,-11.4 c 0.043,-0.462 0.436,-0.812 0.9,-0.8 l 15.6,0 C 0.364,1.388 0.757,1.738 0.8,2.2 l 0,11.4 c -0.043,0.462 -0.436,0.811 -0.9,0.8 l -15.6,0 z"
             style="fill:#34b46f;fill-opacity:1;fill-rule:nonzero;stroke:none"
             id="path70"
             inkscape:connector-curvature="0" /></g><g
           id="g72"
           transform="translate(75.6,594.6)"><path
             d="m 0,0 -1.5,0 0,2.8 c 0.007,0.28 -0.062,0.556 -0.2,0.8 -0.173,0.131 -0.383,0.201 -0.6,0.2 l -5.8,0 C -8.428,3.825 -8.753,3.717 -9,3.5 -9.182,3.311 -9.288,3.062 -9.3,2.8 l 0,-2.8 -1.5,0 0,2.8 c 0.008,0.635 0.258,1.244 0.7,1.7 0.536,0.509 1.264,0.764 2,0.7 l 5.8,0 C -1.675,5.241 -1.061,5.024 -0.6,4.6 -0.12,4.087 0.132,3.402 0.1,2.7 L 0,0 Z"
             style="fill:#34b46f;fill-opacity:1;fill-rule:nonzero;stroke:none"
             id="path74"
             inkscape:connector-curvature="0" /></g><g
           id="g76"
           transform="translate(65.3,587.8)"><path
             d="m 0,0 1.4,1.4 2.5,-2.6 5,5 L 10.2,2.4 4,-3.8 0,0 Z"
             style="fill:#34b46f;fill-opacity:1;fill-rule:nonzero;stroke:none"
             id="path78"
             inkscape:connector-curvature="0" /></g><g
           id="g80"
           transform="translate(108.1,579.9)"><path
             d="m 0,0 -15.6,0 c -1.297,-0.028 -2.371,1 -2.4,2.297 0,10e-4 0,0.002 0,0.003 l 0,11.4 c 0.026,1.296 1.098,2.326 2.395,2.3 0.002,0 0.003,0 0.005,0 L 0,16 c 1.296,0.029 2.371,-0.999 2.4,-2.295 0,-0.002 0,-0.003 0,-0.005 L 2.4,2.3 C 2.374,1.003 1.302,-0.026 0.005,0 0.003,0 0.002,0 0,0 m -15.7,14.4 c -0.464,0.011 -0.857,-0.338 -0.9,-0.8 l 0,-11.4 c 0.043,-0.462 0.436,-0.812 0.9,-0.8 l 15.6,0 C 0.364,1.388 0.757,1.738 0.8,2.2 l 0,11.4 c -0.043,0.462 -0.436,0.811 -0.9,0.8 l -15.6,0 z"
             style="fill:#00bce4;fill-opacity:1;fill-rule:nonzero;stroke:none"
             id="path82"
             inkscape:connector-curvature="0" /></g><g
           id="g84"
           transform="translate(105.6,594.6)"><path
             d="m 0,0 -1.5,0 0,2.8 c 0.007,0.28 -0.062,0.556 -0.2,0.8 -0.173,0.131 -0.383,0.201 -0.6,0.2 l -5.8,0 C -8.428,3.825 -8.753,3.717 -9,3.5 -9.182,3.311 -9.288,3.062 -9.3,2.8 l 0,-2.8 -1.5,0 0,2.8 c 0.008,0.635 0.258,1.244 0.7,1.7 0.536,0.509 1.264,0.764 2,0.7 l 5.8,0 C -1.675,5.241 -1.061,5.024 -0.6,4.6 -0.12,4.087 0.132,3.402 0.1,2.7 L 0,0 Z"
             style="fill:#00bce4;fill-opacity:1;fill-rule:nonzero;stroke:none"
             id="path86"
             inkscape:connector-curvature="0" /></g><g
           id="g88"
           transform="translate(97.3,591.3)"><path
             d="M 0,0 3.1,0 C 3.569,0.029 4.04,-0.005 4.5,-0.1 4.786,-0.138 5.059,-0.241 5.3,-0.4 L 5.9,-1 C 6.071,-1.267 6.142,-1.586 6.1,-1.9 6.108,-2.226 6.002,-2.544 5.8,-2.8 5.607,-3.083 5.326,-3.294 5,-3.4 5.432,-3.511 5.817,-3.756 6.1,-4.1 6.377,-4.397 6.521,-4.794 6.5,-5.2 6.482,-5.541 6.414,-5.878 6.3,-6.2 5.976,-6.895 5.267,-7.329 4.5,-7.3 l -4.6,0 L 0,0 Z m 1.6,-1.2 0,-1.7 2.1,0 c 0.242,-0.032 0.48,0.087 0.6,0.3 0.183,0.14 0.262,0.378 0.2,0.6 -0.021,0.213 -0.089,0.418 -0.2,0.6 -0.177,0.141 -0.381,0.243 -0.6,0.3 l -1.4,0 C 2.081,-1.198 1.838,-1.233 1.6,-1.2 m 0,-2.9 0,-2 2.6,0 c 0.232,0.015 0.449,0.123 0.6,0.3 0.111,0.183 0.179,0.388 0.2,0.6 -0.021,0.213 -0.089,0.418 -0.2,0.6 -0.096,0.187 -0.29,0.304 -0.5,0.3 -0.459,0.106 -0.931,0.139 -1.4,0.1 -0.428,0.083 -0.864,0.116 -1.3,0.1"
             style="fill:#00bce4;fill-opacity:1;fill-rule:nonzero;stroke:none"
             id="path90"
             inkscape:connector-curvature="0" /></g><g
           id="g92"
           transform="translate(94.6,504.057)"><path
             d="m 0,0 -93.6,0 c -0.552,0 -1,0.448 -1,1 0,0.552 0.448,1 1,1 L 0,2 c 0.521,0.031 0.969,-0.366 1,-0.887 0,0 0,0 0,0 C 1.002,1.075 1.002,1.038 1,1 1,0.448 0.552,0 0,0"
             style="fill:#00bce4;fill-opacity:1;fill-rule:nonzero;stroke:none"
             id="path94"
             inkscape:connector-curvature="0" /></g><g
           id="g96"
           transform="translate(90.8,499.957)"><path
             d="M 0,0 C -0.266,-0.007 -0.522,0.102 -0.7,0.3 -1.087,0.668 -1.101,1.28 -0.733,1.667 L -0.7,1.7 3.5,5.6 C 3.883,5.99 4.51,5.997 4.9,5.614 5.29,5.231 5.297,4.604 4.914,4.214 L 4.9,4.2 0.7,0.3 C 0.539,0.079 0.271,-0.036 0,0"
             style="fill:#00bce4;fill-opacity:1;fill-rule:nonzero;stroke:none"
             id="path98"
             inkscape:connector-curvature="0" /></g><g
           id="g100"
           transform="translate(95,504.057)"><path
             d="m 0,0 c -0.262,0.012 -0.511,0.118 -0.7,0.3 l -4.2,3.9 c -0.39,0.383 -0.397,1.01 -0.014,1.4 0.383,0.39 1.01,0.397 1.4,0.014 L -3.5,5.6 0.7,1.7 C 1.087,1.332 1.101,0.72 0.733,0.333 L 0.7,0.3 C 0.511,0.118 0.262,0.012 0,0"
             style="fill:#00bce4;fill-opacity:1;fill-rule:nonzero;stroke:none"
             id="path102"
             inkscape:connector-curvature="0" /></g><g
           id="g104"
           transform="translate(152.3,504.057)"><path
             d="m 0,0 -31.3,0 c -0.552,0 -1,0.448 -1,1 0,0.552 0.448,1 1,1 L 0,2 c 0.521,0.031 0.969,-0.366 1,-0.887 0,0 0,0 0,0 C 1.002,1.075 1.002,1.038 1,1 1,0.448 0.552,0 0,0"
             style="fill:#00bce4;fill-opacity:1;fill-rule:nonzero;stroke:none"
             id="path106"
             inkscape:connector-curvature="0" /></g><g
           id="g108"
           transform="translate(148.5,499.957)"><path
             d="M 0,0 C -0.527,-0.003 -0.956,0.422 -0.959,0.949 -0.961,1.241 -0.829,1.518 -0.6,1.7 l 4.2,3.9 c 0.398,0.36 1.013,0.329 1.373,-0.069 0,0 0,0 0,0 L 5,5.5 C 5.364,5.162 5.386,4.593 5.048,4.228 5.003,4.18 4.954,4.137 4.9,4.1 L 0.7,0.2 C 0.502,0.043 0.251,-0.029 0,0"
             style="fill:#00bce4;fill-opacity:1;fill-rule:nonzero;stroke:none"
             id="path110"
             inkscape:connector-curvature="0" /></g><g
           id="g112"
           transform="translate(152.7,504.057)"><path
             d="m 0,0 c -0.262,0.012 -0.511,0.118 -0.7,0.3 l -4.2,3.9 c -0.414,0.359 -0.459,0.986 -0.1,1.4 0.359,0.414 0.986,0.459 1.4,0.1 L 0.6,1.8 C 0.977,1.423 1.02,0.827 0.7,0.4 0.582,0.125 0.297,-0.038 0,0"
             style="fill:#00bce4;fill-opacity:1;fill-rule:nonzero;stroke:none"
             id="path114"
             inkscape:connector-curvature="0" /></g><g
           id="g116"
           transform="translate(125.9,575.2)"><path
             d="M 0,0 0,0 C -0.21,-0.004 -0.404,0.113 -0.5,0.3 L -1.9,4 -5.5,4.2 c -0.19,-0.03 -0.369,0.099 -0.4,0.289 0,0.001 0,0.001 0,0.002 l 0,0.009 C -5.976,4.671 -5.936,4.871 -5.8,5 l 3.1,3.6 0.8,-0.7 -2.4,-2.8 3,-0.2 c 0.191,0.03 0.37,-0.1 0.4,-0.291 L -0.9,4.6 0.2,1.6 2.4,5.9 3.3,5.4 0.5,0 C 0.337,0.051 0.163,0.051 0,0"
             style="fill:#00bce4;fill-opacity:1;fill-rule:nonzero;stroke:none"
             id="path118"
             inkscape:connector-curvature="0" /></g><g
           id="g120"
           transform="translate(134.4,575.2)"><path
             d="m 0,0 c -0.19,-0.03 -0.369,0.099 -0.4,0.289 0,0.001 0,0.001 0,0.002 l 0,0.009 -2.8,5.4 0.9,0.5 2.2,-4.3 1.1,3 C 1.053,5.077 1.215,5.199 1.4,5.2 L 4.4,5.4 2,8.2 2.8,8.9 5.9,5.3 C 6.036,5.171 6.076,4.971 6,4.8 5.947,4.623 5.785,4.501 5.6,4.5 L 2,4.3 0.6,0.6 C 0.4,0.1 0.3,0 0,0"
             style="fill:#00bce4;fill-opacity:1;fill-rule:nonzero;stroke:none"
             id="path122"
             inkscape:connector-curvature="0" /></g><g
           id="g124"
           transform="translate(127.2,585.6)"><path
             d="m 0,0 0,6.7 -1.2,0 0,0.7 L 1.4,7.9 1.4,0 0,0 Z"
             style="fill:#00bce4;fill-opacity:1;fill-rule:nonzero;stroke:none"
             id="path126"
             inkscape:connector-curvature="0" /></g><g
           id="g128"
           transform="translate(129.7,589.1)"><path
             d="M 0,0 0,0.6 C 0.34,0.42 0.716,0.318 1.1,0.3 1.285,0.304 1.463,0.375 1.6,0.5 1.724,0.596 1.797,0.743 1.8,0.9 1.733,1.166 1.549,1.387 1.3,1.5 L 0.9,1.7 C 0.317,1.792 -0.081,2.34 0.012,2.923 0.046,3.141 0.147,3.342 0.3,3.5 0.547,3.717 0.872,3.825 1.2,3.8 1.47,3.81 1.741,3.777 2,3.7 l 0.1,0 0,-0.6 C 1.807,3.194 1.505,3.261 1.2,3.3 1.027,3.326 0.85,3.291 0.7,3.2 0.601,3.126 0.53,3.02 0.5,2.9 0.549,2.647 0.747,2.449 1,2.4 L 1.3,2.3 C 1.593,2.18 1.864,2.011 2.1,1.8 2.254,1.64 2.327,1.42 2.3,1.2 2.316,0.882 2.164,0.578 1.9,0.4 1.607,0.197 1.257,0.092 0.9,0.1 0.8,-0.2 0.4,-0.2 0,0"
             style="fill:#00bce4;fill-opacity:1;fill-rule:nonzero;stroke:none"
             id="path130"
             inkscape:connector-curvature="0" /></g><g
           id="g132"
           transform="translate(134.3,588.9)"><path
             d="M 0,0 C -0.156,-0.073 -0.328,-0.107 -0.5,-0.1 -1.069,-0.139 -1.561,0.29 -1.6,0.859 -1.603,0.906 -1.603,0.953 -1.6,1 l 0,2.2 -0.5,0 0,0.5 0.5,0 0,0.7 0.7,0.1 0,-0.7 1,0 0,-0.5 -1,0 0,-2 C -0.975,0.997 -0.79,0.69 -0.487,0.614 -0.426,0.599 -0.363,0.594 -0.3,0.6 L 0,0.6 0,0 Z"
             style="fill:#00bce4;fill-opacity:1;fill-rule:nonzero;stroke:none"
             id="path134"
             inkscape:connector-curvature="0" /></g><g
           id="g136"
           transform="translate(130.1,579.4)"><path
             d="M 0,0 -2,1.6 -4.5,1 -5.6,3.3 -8.1,3.8 -8,6.4 -10,8 l 1.2,2.3 -1.2,2.3 2,1.6 -0.1,2.6 2.5,0.5 1.1,2.3 L -2,19 0,20.6 2,19 4.5,19.6 5.6,17.3 8.1,16.8 8,14.2 10,12.6 8.8,10.3 10,8 8,6.4 8.1,3.8 5.6,3.3 4.5,1 2,1.6 0,0 Z M -1.6,3.3 0,2 l 1.6,1.3 2,-0.5 0.9,1.9 2,0.4 0,2.1 1.6,1.3 -0.9,1.8 0.9,1.8 -1.6,1.3 0,2.1 -2,0.4 -0.9,1.9 -2,-0.5 -1.6,1.3 -1.6,-1.3 -2,0.5 -0.9,-1.9 -2,-0.4 0,-2.1 -1.6,-1.3 0.9,-1.8 -0.9,-1.8 1.6,-1.3 0,-2.1 2,-0.4 0.9,-1.9 2,0.5 z"
             style="fill:#00bce4;fill-opacity:1;fill-rule:nonzero;stroke:none"
             id="path138"
             inkscape:connector-curvature="0" /></g><g
           id="g140"
           transform="translate(21.299,477.746)"><path
             d="m 0,0 -0.014,-0.017 -3.7,-3.7 -0.01,0 C -3.931,-3.923 -4.22,-4.025 -4.51,-3.993 l -12.339,1.447 -0.827,-0.827 8.766,-3.535 c 0.152,-0.044 0.289,-0.126 0.4,-0.239 0.376,-0.376 0.376,-0.986 0,-1.362 0,0 0,0 0,0 l -4.058,-4.051 c -0.215,-0.215 -0.519,-0.316 -0.82,-0.27 l -4.249,0.628 -1.074,-1.072 4.412,-2.172 c 0.194,-0.095 0.35,-0.253 0.445,-0.447 l 2.049,-4.26 1.066,1.065 -0.629,4.191 c -0.061,0.318 0.039,0.645 0.267,0.874 l 4.059,4.051 c 0.092,0.091 0.201,0.163 0.321,0.212 0.493,0.194 1.051,-0.045 1.25,-0.536 l 3.56,-8.829 0.833,0.826 -1.441,12.279 c -0.052,0.308 0.05,0.621 0.273,0.84 l 3.717,3.717 C 1.864,-1.045 1.844,-0.386 1.426,0.007 1.031,0.378 0.418,0.384 0.016,0.021 L 0,0 Z m -1.38,1.341 0,0 0.02,0.017 0.021,0.021 c 2.76,2.72 6.846,-1.53 4.167,-4.209 L -0.56,-6.218 0.881,-18.546 c 0.034,-0.291 -0.066,-0.581 -0.273,-0.788 l 0.007,0 -2.187,-2.184 c -0.367,-0.378 -0.971,-0.386 -1.349,-0.018 -0.119,0.115 -0.205,0.259 -0.251,0.418 l -3.539,8.761 -2.688,-2.689 0.629,-4.241 c 0.042,-0.315 -0.069,-0.631 -0.3,-0.85 l -2.329,-2.326 c -0.391,-0.376 -1.013,-0.363 -1.388,0.028 -0.08,0.083 -0.145,0.18 -0.191,0.285 l -2.46,5.123 -5.322,2.625 c -0.474,0.234 -0.67,0.807 -0.439,1.283 0.048,0.103 0.116,0.196 0.2,0.273 l 2.343,2.338 c 0.214,0.216 0.519,0.316 0.82,0.27 l 4.243,-0.625 2.685,2.683 -8.841,3.563 c -0.491,0.198 -0.73,0.757 -0.533,1.249 0.049,0.121 0.124,0.231 0.218,0.321 l -0.003,0 2.179,2.18 c 0.22,0.222 0.533,0.324 0.841,0.274 l 12.291,-1.441 3.376,3.375 z"
             style="fill:#565656;fill-opacity:1;fill-rule:nonzero;stroke:none"
             id="path142"
             inkscape:connector-curvature="0" /></g><g
           id="g144"
           transform="translate(51.299,477.746)"><path
             d="m 0,0 -0.014,-0.017 -3.7,-3.7 -0.01,0 C -3.931,-3.923 -4.22,-4.025 -4.51,-3.993 l -12.339,1.447 -0.827,-0.827 8.766,-3.535 c 0.152,-0.044 0.289,-0.126 0.4,-0.239 0.376,-0.376 0.376,-0.986 0,-1.362 0,0 0,0 0,0 l -4.058,-4.051 c -0.215,-0.215 -0.519,-0.316 -0.82,-0.27 l -4.249,0.628 -1.074,-1.072 4.412,-2.172 c 0.194,-0.095 0.35,-0.253 0.445,-0.447 l 2.049,-4.26 1.066,1.065 -0.629,4.191 c -0.061,0.318 0.039,0.645 0.267,0.874 l 4.059,4.051 c 0.092,0.091 0.201,0.163 0.321,0.212 0.493,0.194 1.051,-0.045 1.25,-0.536 l 3.56,-8.829 0.833,0.826 -1.441,12.279 c -0.052,0.308 0.05,0.621 0.273,0.84 l 3.717,3.717 C 1.865,-1.045 1.844,-0.386 1.426,0.007 1.031,0.378 0.418,0.384 0.016,0.021 L 0,0 Z m -1.38,1.341 0,0 0.02,0.017 0.021,0.021 c 2.76,2.72 6.846,-1.53 4.167,-4.209 L -0.56,-6.218 0.881,-18.546 c 0.034,-0.291 -0.066,-0.581 -0.273,-0.788 l 0.007,0 -2.187,-2.184 c -0.367,-0.378 -0.971,-0.386 -1.349,-0.018 -0.119,0.115 -0.205,0.259 -0.251,0.418 l -3.539,8.761 -2.688,-2.689 0.629,-4.241 c 0.042,-0.315 -0.069,-0.631 -0.3,-0.85 l -2.33,-2.324 c -0.391,-0.376 -1.013,-0.363 -1.388,0.028 -0.08,0.083 -0.145,0.18 -0.191,0.285 l -2.46,5.123 -5.322,2.625 c -0.473,0.235 -0.668,0.808 -0.437,1.283 0.047,0.105 0.115,0.198 0.2,0.276 l 2.343,2.338 c 0.214,0.216 0.519,0.316 0.82,0.27 l 4.243,-0.625 2.685,2.683 -8.841,3.563 c -0.491,0.198 -0.73,0.757 -0.533,1.249 0.049,0.121 0.124,0.231 0.218,0.321 l -0.004,0 2.179,2.18 c 0.22,0.222 0.533,0.324 0.841,0.274 l 12.291,-1.441 3.376,3.37 z"
             style="fill:#ffffff;fill-opacity:1;fill-rule:nonzero;stroke:none"
             id="path146"
             inkscape:connector-curvature="0" /></g><g
           id="g148"
           transform="translate(67.767,479.994)"><path
             d="m 0,0 4.739,0 0,0.006 4.773,0 c 0.255,0 0.501,-0.1 0.683,-0.279 l 3.382,-3.383 0.041,-0.047 3.327,-3.335 c 0.198,-0.187 0.303,-0.451 0.287,-0.723 l 0,-9.512 c 0,-0.254 -0.101,-0.497 -0.28,-0.676 l -3.375,-3.381 -0.055,-0.042 -3.327,-3.334 c -0.191,-0.191 -0.453,-0.292 -0.723,-0.28 l -9.513,0 c -0.254,-10e-4 -0.499,0.097 -0.682,0.273 l -3.375,3.383 -0.048,0.047 -3.335,3.334 c -0.189,0.192 -0.29,0.454 -0.279,0.724 l 0,4.731 -0.007,0 0,4.78 c 0.002,0.254 0.105,0.497 0.286,0.675 l 3.383,3.382 0.041,0.042 3.334,3.341 C -0.53,-0.087 -0.268,0.012 0,-0.001 m -0.812,-10.712 c 0,-0.318 -0.258,-0.576 -0.576,-0.576 -0.318,0 -0.576,0.258 -0.576,0.576 -0.001,0.028 -0.014,0.055 -0.034,0.075 -0.021,0.018 -0.047,0.028 -0.075,0.027 l -1.671,0 c -0.026,0.003 -0.051,-0.007 -0.068,-0.027 l -0.007,0 c -0.019,-0.02 -0.029,-0.047 -0.027,-0.075 l 0,-1.1 c -0.003,-0.026 0.007,-0.051 0.027,-0.068 l 0.007,0 c 0.014,-0.024 0.041,-0.037 0.068,-0.034 l 1.671,0 0.048,-0.007 c 0.316,-0.013 0.615,-0.145 0.839,-0.368 l 0.007,0 c 0.233,-0.237 0.364,-0.555 0.367,-0.887 l 0,-1.091 c 0.001,-0.333 -0.131,-0.652 -0.367,-0.887 l 0,-0.006 c -0.238,-0.237 -0.558,-0.371 -0.894,-0.375 l -1.671,0 c -0.333,0.005 -0.651,0.139 -0.886,0.375 -0.24,0.235 -0.373,0.558 -0.368,0.893 0,0.318 0.258,0.576 0.576,0.576 0.318,0 0.576,-0.258 0.576,-0.576 10e-4,-0.03 0.013,-0.06 0.034,-0.082 0.018,-0.017 0.043,-0.027 0.068,-0.027 l 1.671,0 c 0.027,0 0.054,0.01 0.075,0.027 0.024,0.021 0.036,0.051 0.034,0.082 l 0,1.091 c 0,0.027 -0.012,0.052 -0.034,0.068 l 0,0.007 c -0.02,0.021 -0.047,0.033 -0.075,0.034 l -1.712,0 c -0.318,0.013 -0.619,0.144 -0.845,0.368 -0.236,0.235 -0.369,0.554 -0.368,0.887 l 0,1.1 c -0.003,0.333 0.13,0.653 0.368,0.886 0.235,0.236 0.553,0.37 0.886,0.375 l 1.671,0 c 0.336,-0.004 0.656,-0.138 0.894,-0.375 0.235,-0.235 0.367,-0.554 0.367,-0.886 m 12.125,-4.241 c -0.003,-0.322 -0.265,-0.581 -0.587,-0.58 -0.318,0.003 -0.574,0.262 -0.573,0.58 l 0,4.916 c -0.004,0.32 0.252,0.582 0.572,0.586 l 0.001,0 2.783,0 c 0.256,0 0.501,-0.103 0.681,-0.286 l 0.014,-0.014 c 0.173,-0.18 0.271,-0.419 0.273,-0.668 l 0,-1.684 c -0.002,-0.256 -0.105,-0.501 -0.287,-0.682 -0.18,-0.181 -0.426,-0.282 -0.681,-0.28 l -2.2,0 0,-1.888 0.004,0 z m 0,3.034 2.005,0 0,1.309 -2.005,0 c 0,0 0,-1.309 0,-1.309 m -5.155,2.468 1.663,0 C 8.154,-9.454 8.472,-9.586 8.708,-9.82 l 0.007,-0.007 c 0.236,-0.235 0.368,-0.554 0.368,-0.886 l 0,-3.553 c 10e-4,-0.335 -0.131,-0.656 -0.368,-0.893 L 8.708,-15.166 C 8.472,-15.4 8.154,-15.532 7.821,-15.534 l -1.663,0 c -0.335,-10e-4 -0.657,0.131 -0.894,0.368 l -0.04,0.048 c -0.21,0.234 -0.326,0.537 -0.328,0.852 l 0,3.553 c 0,0.332 0.132,0.651 0.368,0.886 l 0,0.007 c 0.237,0.237 0.559,0.369 0.894,0.368 m 1.663,-1.159 -1.663,0 c -0.028,0.003 -0.055,-0.007 -0.075,-0.027 l -0.007,0 c -0.019,-0.021 -0.029,-0.047 -0.028,-0.075 l 0,-3.553 c 0.003,-0.026 0.01,-0.051 0.021,-0.075 l 0.014,-0.007 c 0.021,-0.017 0.048,-0.027 0.075,-0.027 l 1.663,0 c 0.03,0.002 0.058,0.011 0.083,0.027 0.019,0.023 0.029,0.052 0.027,0.082 l 0,3.553 c 0,0.027 -0.009,0.054 -0.027,0.075 -0.023,0.019 -0.053,0.029 -0.083,0.027 m -5.168,-4.343 c 0.013,-0.318 -0.234,-0.587 -0.552,-0.601 -0.319,-0.013 -0.588,0.235 -0.601,0.553 -10e-4,0.016 -10e-4,0.032 0,0.048 l 0,4.343 -0.988,0 c -0.32,-0.013 -0.59,0.235 -0.604,0.555 -0.013,0.32 0.236,0.591 0.556,0.604 0.016,10e-4 0.032,10e-4 0.048,0 l 3.136,0 c 0.32,-0.013 0.569,-0.284 0.555,-0.604 -0.012,-0.301 -0.254,-0.542 -0.555,-0.555 l -1,0 0,-4.343 0.005,0 z m 2.086,13.044 -4.391,0 -3.041,-3.055 -0.049,-0.047 -3.1,-3.1 0,-8.756 3.055,-3.055 0.047,-0.041 3.1,-3.1 4.384,0 0,-0.006 4.378,0 3.055,3.048 0.041,0.054 3.1,3.1 0,4.374 0.007,0 0,4.384 -3.048,3.049 -0.055,0.048 -3.1,3.095 -4.383,0 0,0.007 0,0.001 z"
             style="fill:#565656;fill-opacity:1;fill-rule:nonzero;stroke:none"
             id="path150"
             inkscape:connector-curvature="0" /></g><g
           id="g152"
           transform="translate(97.767,479.992)"><path
             d="m 0,0 4.739,0 0,0.008 4.773,0 c 0.255,0 0.501,-0.1 0.683,-0.279 l 3.382,-3.383 0.041,-0.047 3.327,-3.335 c 0.198,-0.187 0.303,-0.451 0.287,-0.723 l 0,-9.512 c 0,-0.254 -0.101,-0.497 -0.28,-0.676 l -3.375,-3.381 -0.055,-0.041 -3.327,-3.335 c -0.191,-0.191 -0.453,-0.292 -0.723,-0.28 l -9.513,0 c -0.254,-10e-4 -0.499,0.097 -0.682,0.273 l -3.375,3.383 -0.048,0.047 -3.335,3.334 c -0.189,0.192 -0.29,0.454 -0.279,0.724 l 0,4.731 -0.007,0 0,4.78 c 0.002,0.254 0.105,0.497 0.286,0.675 l 3.383,3.382 0.041,0.042 3.334,3.341 C -0.53,-0.085 -0.268,0.014 0,0.001 m -0.812,-10.716 c 0,-0.318 -0.258,-0.576 -0.576,-0.576 -0.318,0 -0.576,0.258 -0.576,0.576 -0.001,0.028 -0.014,0.055 -0.034,0.075 -0.021,0.018 -0.048,0.028 -0.075,0.027 l -1.671,0 c -0.026,0.003 -0.051,-0.007 -0.068,-0.027 l -0.007,0 c -0.019,-0.02 -0.029,-0.047 -0.027,-0.075 l 0,-1.1 c -0.003,-0.026 0.007,-0.051 0.027,-0.068 l 0.007,0 c 0.014,-0.024 0.041,-0.037 0.068,-0.034 l 1.671,0 0.048,-0.007 c 0.316,-0.013 0.615,-0.145 0.839,-0.368 l 0.007,0 c 0.233,-0.237 0.364,-0.555 0.367,-0.887 l 0,-1.091 c 0.001,-0.333 -0.131,-0.652 -0.367,-0.887 l 0,-0.006 c -0.238,-0.237 -0.558,-0.371 -0.894,-0.375 l -1.671,0 c -0.333,0.005 -0.651,0.139 -0.886,0.375 -0.24,0.235 -0.373,0.558 -0.368,0.893 0,0.318 0.258,0.576 0.576,0.576 0.318,0 0.576,-0.258 0.576,-0.576 10e-4,-0.03 0.013,-0.059 0.034,-0.082 0.018,-0.017 0.043,-0.027 0.068,-0.027 l 1.671,0 c 0.027,0 0.054,0.01 0.075,0.027 0.024,0.021 0.036,0.051 0.034,0.082 l 0,1.091 c 0,0.027 -0.012,0.052 -0.034,0.068 l 0,0.009 c -0.02,0.021 -0.047,0.033 -0.075,0.034 l -1.712,0 c -0.318,0.013 -0.619,0.144 -0.845,0.368 -0.236,0.235 -0.369,0.554 -0.368,0.887 l 0,1.1 c -0.003,0.333 0.13,0.653 0.368,0.886 0.235,0.236 0.553,0.37 0.886,0.375 l 1.671,0 c 0.336,-0.004 0.656,-0.138 0.894,-0.375 0.235,-0.235 0.367,-0.554 0.367,-0.886 m 12.125,-4.243 c -0.003,-0.322 -0.265,-0.581 -0.587,-0.58 -0.318,0.003 -0.574,0.262 -0.573,0.58 l 0,4.916 c -0.004,0.32 0.252,0.582 0.572,0.586 0,0 0.001,0 0.001,0 l 2.783,0 c 0.256,0 0.501,-0.103 0.681,-0.286 l 0.014,-0.014 c 0.173,-0.18 0.271,-0.419 0.273,-0.668 l 0,-1.684 c -0.002,-0.256 -0.105,-0.501 -0.287,-0.682 -0.18,-0.181 -0.426,-0.282 -0.681,-0.28 l -2.2,0 0,-1.888 0.004,0 z m 0,3.034 2.005,0 0,1.309 -2.005,0 0,-1.309 z m -5.155,2.468 1.663,0 c 0.332,-0.002 0.651,-0.134 0.887,-0.368 l 0.007,-0.007 c 0.236,-0.235 0.368,-0.554 0.368,-0.886 l 0,-3.553 c 10e-4,-0.335 -0.131,-0.656 -0.368,-0.893 l -0.007,-0.007 c -0.236,-0.234 -0.555,-0.366 -0.887,-0.368 l -1.663,0 c -0.335,-0.001 -0.657,0.131 -0.894,0.368 l -0.04,0.048 c -0.21,0.234 -0.326,0.537 -0.328,0.852 l 0,3.553 c 0,0.332 0.132,0.651 0.368,0.886 l 0,0.007 c 0.237,0.237 0.559,0.369 0.894,0.368 m 1.663,-1.159 -1.663,0 C 6.13,-10.61 6.103,-10.62 6.083,-10.64 l -0.007,0 c -0.019,-0.02 -0.029,-0.047 -0.028,-0.075 l 0,-3.553 c 0.003,-0.026 0.01,-0.051 0.021,-0.075 l 0.014,-0.007 c 0.021,-0.017 0.048,-0.027 0.075,-0.027 l 1.663,0 c 0.03,0.002 0.058,0.011 0.083,0.027 0.019,0.023 0.029,0.052 0.027,0.082 l 0,3.553 c 0,0.027 -0.009,0.054 -0.027,0.075 -0.023,0.019 -0.053,0.029 -0.083,0.027 m -5.168,-4.343 c 0.013,-0.318 -0.234,-0.587 -0.552,-0.601 -0.319,-0.013 -0.588,0.235 -0.601,0.553 -10e-4,0.016 -10e-4,0.032 0,0.048 l 0,4.343 -0.988,0 c -0.32,-0.013 -0.59,0.235 -0.604,0.555 -0.013,0.32 0.236,0.591 0.556,0.604 0.016,0.001 0.032,0.001 0.048,0 l 3.136,0 c 0.32,-0.013 0.569,-0.284 0.555,-0.604 -0.012,-0.301 -0.254,-0.542 -0.555,-0.555 l -1,0 0,-4.343 0.005,0 z m 2.086,13.044 -4.391,0 -3.041,-3.055 -0.049,-0.047 -3.1,-3.1 0,-8.756 3.055,-3.055 0.047,-0.041 3.1,-3.1 4.384,0 0,-0.006 4.378,0 3.055,3.048 0.041,0.054 3.1,3.1 0,4.378 0.007,0 0,4.384 -3.048,3.049 -0.055,0.048 -3.1,3.095 -4.378,0 0,0.004 -0.005,0 z"
             style="fill:#ffffff;fill-opacity:1;fill-rule:nonzero;stroke:none"
             id="path154"
             inkscape:connector-curvature="0" /></g><g
           id="g156"
           transform="translate(132.5,480)"><path
             d="M 0,0 C 3.317,0.004 6.499,-1.314 8.841,-3.662 L 8.89,-3.72 c 4.831,-4.889 4.809,-12.76 -0.049,-17.622 l -0.058,-0.047 c -4.884,-4.844 -12.766,-4.821 -17.622,0.051 -4.881,4.881 -4.881,12.796 0,17.677 C -6.498,-1.312 -3.316,0.005 0,0 m 5.46,-11.54 -4.5,0 0,7.654 c -0.001,0.531 -0.433,0.961 -0.964,0.96 -0.53,-10e-4 -0.959,-0.43 -0.96,-0.96 l 0,-8.614 c 0.002,-0.531 0.431,-0.96 0.962,-0.962 l 5.46,0 c 0.531,10e-4 0.961,0.433 0.96,0.964 -0.001,0.53 -0.43,0.959 -0.96,0.96 m 2.022,6.516 0,0 c -4.134,4.125 -10.826,4.125 -14.96,0 -4.129,-4.132 -4.129,-10.828 0,-14.96 4.117,-4.11 10.779,-4.129 14.919,-0.041 l 0.041,0.045 c 4.115,4.115 4.134,10.78 0.044,14.919 L 7.48,-5.022 Z"
             style="fill:#565656;fill-opacity:1;fill-rule:nonzero;stroke:none"
             id="path158"
             inkscape:connector-curvature="0" /></g><g
           id="g160"
           transform="translate(162.5,480)"><path
             d="M 0,0 C 3.317,0.004 6.499,-1.314 8.841,-3.662 L 8.89,-3.72 c 4.831,-4.889 4.809,-12.76 -0.049,-17.622 l -0.058,-0.047 c -4.884,-4.844 -12.766,-4.821 -17.622,0.051 -4.881,4.881 -4.881,12.796 0,17.677 C -6.498,-1.312 -3.316,0.005 0,0 m 5.46,-11.541 -4.5,0 0,7.654 c -0.001,0.531 -0.433,0.961 -0.964,0.96 -0.53,-10e-4 -0.959,-0.43 -0.96,-0.96 l 0,-8.613 c 0.002,-0.531 0.431,-0.96 0.962,-0.962 l 5.46,0 c 0.531,10e-4 0.961,0.433 0.96,0.964 -0.001,0.53 -0.43,0.959 -0.96,0.96 m 2.022,6.515 0,0 c -4.134,4.125 -10.826,4.125 -14.96,0 -4.129,-4.132 -4.129,-10.828 0,-14.96 4.117,-4.11 10.779,-4.129 14.919,-0.041 l 0.041,0.045 c 4.115,4.115 4.134,10.78 0.044,14.919 L 7.48,-5.023 Z"
             style="fill:#ffffff;fill-opacity:1;fill-rule:nonzero;stroke:none"
             id="path162"
             inkscape:connector-curvature="0" /></g><g
           id="g164"
           transform="translate(201.339,476.336)"><path
             d="M 0,0 0,0 C -4.877,4.878 -12.784,4.879 -17.662,0.002 -17.663,0.001 -17.663,0.001 -17.664,0 l -0.007,-0.007 c -4.878,-4.869 -4.885,-12.77 -0.016,-17.648 0.005,-0.005 0.011,-0.011 0.016,-0.016 l 0.007,-0.007 c 4.865,-4.878 12.763,-4.888 17.641,-0.023 0.008,0.008 0.015,0.015 0.023,0.023 l 0.007,0 c 4.879,4.876 4.882,12.783 0.006,17.662 -0.002,0.002 -0.004,0.004 -0.006,0.006 m -1.365,-16.303 0,0 c -4.131,-4.127 -10.824,-4.127 -14.955,0 -4.125,4.132 -4.125,10.823 0,14.955 l 0,0.007 c 4.132,4.125 10.823,4.125 14.955,0 l 0,-0.007 c 4.127,-4.131 4.127,-10.824 0,-14.955 m -5.91,11.938 0,0 c 0.48,-0.001 0.869,-0.39 0.87,-0.87 0.013,-0.319 0.283,-0.568 0.603,-0.554 0.3,0.012 0.541,0.253 0.554,0.554 -0.007,1.116 -0.911,2.019 -2.027,2.024 l -0.993,0 0,0.955 c 0.013,0.318 -0.234,0.587 -0.552,0.601 -0.319,0.013 -0.588,-0.235 -0.601,-0.553 -10e-4,-0.016 -10e-4,-0.032 0,-0.048 l 0,-0.955 -1,0 c -1.115,-0.007 -2.017,-0.909 -2.023,-2.024 l 0,-2.054 c 0.003,-1.111 0.898,-2.013 2.009,-2.026 l 1.01,0 0,-3.968 -1,0 c -0.23,-0.001 -0.451,0.09 -0.615,0.252 -0.162,0.164 -0.252,0.385 -0.252,0.615 -0.013,0.318 -0.282,0.566 -0.601,0.552 -0.299,-0.012 -0.54,-0.252 -0.552,-0.552 -10e-4,-0.536 0.211,-1.051 0.59,-1.43 0.378,-0.38 0.891,-0.593 1.427,-0.594 l 1,0 0,-0.955 c 0.013,-0.318 0.282,-0.566 0.601,-0.552 0.299,0.012 0.539,0.252 0.552,0.552 l 0,0.955 0.993,0 c 1.104,-0.015 2.012,0.868 2.027,1.973 0,0.017 0,0.034 0,0.051 l 0,2.231 c -0.008,1.115 -0.912,2.017 -2.027,2.023 l -0.993,0 0,3.794 0.993,0 0.007,0.003 z m -2.146,-3.794 -1.01,0 c -0.476,0.006 -0.858,0.394 -0.856,0.87 l 0,2.054 c -0.001,0.48 0.388,0.869 0.868,0.87 l 0.002,0 1,0 0,-3.794 -0.004,0 z m 2.146,-1.156 0,0 c 0.231,-0.001 0.453,-0.092 0.618,-0.253 0.162,-0.163 0.253,-0.384 0.252,-0.614 l 0,-2.231 c 10e-4,-0.48 -0.388,-0.869 -0.868,-0.87 l -0.002,0 -0.993,0 0,3.968 0.993,0 z"
             style="fill:#565656;fill-opacity:1;fill-rule:nonzero;stroke:none"
             id="path166"
             inkscape:connector-curvature="0" /></g><g
           id="g168"
           transform="translate(231.339,476.336)"><path
             d="M 0,0 0,0 C -4.877,4.878 -12.784,4.879 -17.662,0.002 -17.663,0.001 -17.663,0.001 -17.664,0 l -0.007,-0.007 c -4.878,-4.869 -4.885,-12.77 -0.016,-17.648 0.005,-0.005 0.011,-0.011 0.016,-0.016 l 0.007,-0.007 c 4.865,-4.878 12.763,-4.888 17.641,-0.023 0.008,0.008 0.015,0.015 0.023,0.023 l 0.007,0 c 4.879,4.876 4.882,12.783 0.006,17.662 -0.002,0.002 -0.004,0.004 -0.006,0.006 m -1.365,-16.303 0,0 c -4.131,-4.127 -10.824,-4.127 -14.955,0 -4.125,4.132 -4.125,10.823 0,14.955 l 0,0.007 c 4.132,4.125 10.823,4.125 14.955,0 l 0,-0.007 c 4.127,-4.131 4.127,-10.824 0,-14.955 m -5.91,11.938 0,0 c 0.48,-0.001 0.869,-0.39 0.87,-0.87 0.013,-0.319 0.283,-0.568 0.603,-0.554 0.3,0.012 0.541,0.253 0.554,0.554 -0.007,1.116 -0.911,2.019 -2.027,2.024 l -0.993,0 0,0.955 c 0.013,0.318 -0.234,0.587 -0.552,0.601 -0.319,0.013 -0.588,-0.235 -0.601,-0.553 -10e-4,-0.016 -10e-4,-0.032 0,-0.048 l 0,-0.955 -1,0 c -1.115,-0.007 -2.017,-0.909 -2.023,-2.024 l 0,-2.054 c 0.003,-1.111 0.898,-2.013 2.009,-2.026 l 1.01,0 0,-3.968 -1,0 c -0.23,-0.001 -0.451,0.09 -0.615,0.252 -0.162,0.164 -0.252,0.385 -0.252,0.615 -0.013,0.318 -0.282,0.566 -0.601,0.552 -0.299,-0.012 -0.54,-0.252 -0.552,-0.552 -10e-4,-0.536 0.211,-1.051 0.59,-1.43 0.378,-0.38 0.891,-0.593 1.427,-0.594 l 1,0 0,-0.955 c 0.013,-0.318 0.282,-0.566 0.601,-0.552 0.299,0.012 0.539,0.252 0.552,0.552 l 0,0.955 0.993,0 c 1.104,-0.015 2.012,0.868 2.027,1.973 0,0.017 0,0.034 0,0.051 l 0,2.231 c -0.008,1.115 -0.912,2.017 -2.027,2.023 l -0.993,0 0,3.794 0.993,0 0.007,0.003 z m -2.146,-3.794 -1.01,0 c -0.476,0.006 -0.858,0.394 -0.856,0.87 l 0,2.054 c -0.001,0.48 0.388,0.869 0.868,0.87 l 0.002,0 1,0 0,-3.794 -0.004,0 z m 2.146,-1.156 0,0 c 0.231,-0.001 0.453,-0.092 0.618,-0.253 0.162,-0.163 0.253,-0.384 0.252,-0.614 l 0,-2.231 c 10e-4,-0.48 -0.388,-0.869 -0.868,-0.87 l -0.002,0 -0.993,0 0,3.968 0.993,0 z"
             style="fill:#ffffff;fill-opacity:1;fill-rule:nonzero;stroke:none"
             id="path170"
             inkscape:connector-curvature="0" /></g></g></g><g
       id="g172"
       transform="matrix(0.80000343,0,0,0.80000343,0,-0.00205745)"><g
         id="g174"
         clip-path="url(#clipPath176)"><g
           id="g180"
           transform="translate(187.625,598.139)"><path
             d="m 0,0 3.188,0 -3.3,-3.3 C -0.475,-3.663 -0.476,-4.251 -0.113,-4.614 0.25,-4.977 0.838,-4.978 1.201,-4.615 l 3.315,3.3 0,-3.185 c 0.001,-0.515 0.418,-0.931 0.933,-0.931 0.514,0.001 0.93,0.417 0.931,0.931 l 0,5.429 C 6.379,1.445 5.96,1.862 5.444,1.861 c -0.002,0 -0.005,0 -0.007,0 l -5.438,0 c -0.513,0.017 -0.943,-0.386 -0.96,-0.899 -0.017,-0.513 0.386,-0.943 0.899,-0.96 0.02,-0.001 0.041,-0.001 0.061,0 L 0,0 Z"
             style="fill:#00bce4;fill-opacity:1;fill-rule:nonzero;stroke:none"
             id="path182"
             inkscape:connector-curvature="0" /></g><g
           id="g184"
           transform="translate(193.263,586)"><path
             d="m 0,0 c 0.405,-0.001 0.735,0.327 0.737,0.732 l 0,4 C 0.722,5.139 0.38,5.456 -0.027,5.441 -0.412,5.427 -0.722,5.118 -0.736,4.732 l 0,-3.264 -11.054,0 0,11.063 3.267,0 c 0.406,-0.015 0.747,0.302 0.762,0.707 0.015,0.406 -0.302,0.747 -0.708,0.762 -0.018,10e-4 -0.036,10e-4 -0.054,0 l -4,0 c -0.407,0.002 -0.738,-0.327 -0.74,-0.734 l 0,-10e-4 0,-12.533 C -13.261,0.326 -12.932,-0.001 -12.526,0 L 0.001,0 0,0 Z"
             style="fill:#00bce4;fill-opacity:1;fill-rule:nonzero;stroke:none"
             id="path186"
             inkscape:connector-curvature="0" /></g><g
           id="g188"
           transform="translate(187.816,503.834)"><path
             d="m 0,0 -1.836,-1.834 c -0.458,-0.453 -0.461,-1.192 -0.007,-1.649 0.453,-0.458 1.191,-0.461 1.649,-0.008 L 3.643,0.346 C 4.097,0.798 4.098,1.531 3.647,1.985 3.646,1.986 3.644,1.988 3.643,1.989 L -0.194,5.826 C -0.652,6.279 -1.392,6.275 -1.845,5.817 -2.298,5.359 -2.294,4.619 -1.836,4.166 L 0,2.33 l -6.657,0 C -7.299,2.325 -7.817,1.802 -7.816,1.159 -7.811,0.523 -7.293,0.011 -6.657,0.014 L 0,0 Z"
             style="fill:#00bce4;fill-opacity:1;fill-rule:nonzero;stroke:none"
             id="path190"
             inkscape:connector-curvature="0" /></g><g
           id="g192"
           transform="translate(3.848,448.841)"><path
             d="M 0,0 C -0.003,0.636 0.509,1.154 1.145,1.159 1.788,1.161 2.312,0.643 2.318,0 l 0,-50.423 1.834,1.836 c 0.453,0.458 1.192,0.461 1.649,0.008 0.458,-0.454 0.461,-1.192 0.008,-1.65 L 1.972,-54.066 C 1.52,-54.52 0.787,-54.521 0.333,-54.07 c -0.001,10e-4 -0.003,0.003 -0.004,0.004 l -3.837,3.837 c -0.453,0.458 -0.449,1.198 0.009,1.651 0.458,0.453 1.198,0.449 1.651,-0.009 L -0.012,-50.423 0.002,0 0,0 Z"
             style="fill:#00bce4;fill-opacity:1;fill-rule:nonzero;stroke:none"
             id="path194"
             inkscape:connector-curvature="0" /></g><path
           d="m 30,450 2,0 0,-1 -2,0 0,1 z"
           style="fill:#00bce4;fill-opacity:1;fill-rule:nonzero;stroke:none"
           id="path196"
           inkscape:connector-curvature="0" /><path
           d="m 32,444.913 -2,0 0,2.043 2,0 0,-2.043 z m 0,-4.087 -2,0 0,2.044 2,0 0,-2.043 0,-10e-4 z m 0,-4.087 -2,0 0,2.043 2,0 0,-2.043 z m 0,-4.087 -2,0 0,2.048 2,0 0,-2.043 0,-0.005 z m 0,-4.087 -2,0 0,2.043 2,0 0,-2.043 z m 0,-4.087 -2,0 0,2.043 2,0 0,-2.043 z m 0,-4.087 -2,0 0,2.043 2,0 0,-2.043 z m 0,-4.087 -2,0 0,2.043 2,0 0,-2.047 0,0.004 z m 0,-4.087 -2,0 0,2.043 2,0 0,-2.043 z m 0,-4.087 -2,0 0,2.043 2,0 0,-2.043 z m 0,-4.087 -2,0 0,2.043 2,0 0,-2.043 z"
           style="fill:#00bce4;fill-opacity:1;fill-rule:nonzero;stroke:none"
           id="path198"
           inkscape:connector-curvature="0" /><path
           d="m 30,402 2,0 0,-1 -2,0 0,1 z"
           style="fill:#00bce4;fill-opacity:1;fill-rule:nonzero;stroke:none"
           id="path200"
           inkscape:connector-curvature="0" /><g
           id="g202"
           transform="translate(219.122,498.121)"><path
             d="M 0,0 -4.879,4.879 0,9.758 -2.122,11.879 -7,7 -9.122,4.879 -7,2.758 -2.122,-2.121 0,0 Z"
             style="fill:#00bce4;fill-opacity:1;fill-rule:nonzero;stroke:none"
             id="path204"
             inkscape:connector-curvature="0" /></g><g
           id="g206"
           transform="translate(16.1207,374.1629)"><path
             d="m 0,0 0,0 -0.003,-0.003 c -1.491,-1.565 -3.583,-2.562 -5.919,-2.618 -2.339,-0.056 -4.477,0.84 -6.041,2.332 l -0.003,0.003 c -1.565,1.492 -2.562,3.584 -2.618,5.92 -0.056,2.338 0.841,4.478 2.332,6.041 l 0.003,0.005 c 1.491,1.565 3.584,2.562 5.922,2.618 2.336,0.056 4.474,-0.841 6.038,-2.332 l 0.003,-0.005 C 1.279,10.471 2.276,8.376 2.332,6.038 2.388,3.702 1.492,1.565 0,0 m 0.775,13.072 -0.003,0.003 c -1.852,1.766 -4.379,2.825 -7.135,2.759 -2.756,-0.066 -5.229,-1.244 -6.992,-3.094 l -0.006,-0.005 c -1.769,-1.853 -2.828,-4.379 -2.762,-7.138 0.066,-2.756 1.242,-5.227 3.097,-6.99 l 0.006,-0.005 c 1.852,-1.769 4.376,-2.828 7.134,-2.762 2.757,0.066 5.227,1.244 6.993,3.099 l 0.005,0.003 C 2.878,0.795 3.937,3.318 3.872,6.075 3.806,8.833 2.63,11.307 0.775,13.072"
             style="fill:#00bce4;fill-opacity:1;fill-rule:nonzero;stroke:none"
             id="path208"
             inkscape:connector-curvature="0" /></g><g
           id="g210"
           transform="translate(8.9204,378.8916)"><path
             d="M 0,0 -1.828,-0.044 C -2.418,-0.058 -2.91,0.417 -2.924,1.013 -2.938,1.609 -2.47,2.106 -1.88,2.12 l 1.828,0.044 -0.043,1.803 C -0.109,4.579 0.374,5.093 0.979,5.107 1.584,5.122 2.092,4.632 2.106,4.02 L 2.149,2.217 3.977,2.26 C 4.567,2.275 5.059,1.8 5.073,1.204 5.088,0.608 4.619,0.11 4.029,0.096 L 2.201,0.053 2.244,-1.751 C 2.259,-2.362 1.775,-2.876 1.17,-2.891 0.566,-2.905 0.058,-2.415 0.043,-1.803 L 0,0 Z"
             style="fill:#00bce4;fill-opacity:1;fill-rule:nonzero;stroke:none"
             id="path212"
             inkscape:connector-curvature="0" /></g></g></g></g></svg>