<?xml version="1.0" encoding="UTF-8" standalone="no"?>
<!-- Created with Inkscape (http://www.inkscape.org/) -->

<svg
   xmlns:dc="http://purl.org/dc/elements/1.1/"
   xmlns:cc="http://creativecommons.org/ns#"
   xmlns:rdf="http://www.w3.org/1999/02/22-rdf-syntax-ns#"
   xmlns:svg="http://www.w3.org/2000/svg"
   xmlns="http://www.w3.org/2000/svg"
   xmlns:sodipodi="http://sodipodi.sourceforge.net/DTD/sodipodi-0.dtd"
   xmlns:inkscape="http://www.inkscape.org/namespaces/inkscape"
   id="svg3336"
   version="1.1"
   inkscape:version="0.91 r13725"
   xml:space="preserve"
   width="600"
   height="300"
   viewBox="0 0 600 300"
   sodipodi:docname="rogbot-sprite.ai"><metadata
     id="metadata3342"><rdf:RDF><cc:Work
         rdf:about=""><dc:format>image/svg+xml</dc:format><dc:type
           rdf:resource="http://purl.org/dc/dcmitype/StillImage" /><dc:title></dc:title></cc:Work></rdf:RDF></metadata><defs
     id="defs3340"><clipPath
       clipPathUnits="userSpaceOnUse"
       id="clipPath3350"><path
         d="M 0,0 600,0 600,300 0,300 0,0 Z"
         id="path3352"
         inkscape:connector-curvature="0" /></clipPath><clipPath
       clipPathUnits="userSpaceOnUse"
       id="clipPath3658"><path
         d="m 240,195 14.999,0 0,14.999 -14.999,0 0,-14.999 z"
         id="path3660"
         inkscape:connector-curvature="0" /></clipPath><clipPath
       clipPathUnits="userSpaceOnUse"
       id="clipPath3678"><path
         d="m 270,195 15,0 0,14.999 -15,0 0,-14.999 z"
         id="path3680"
         inkscape:connector-curvature="0" /></clipPath><clipPath
       clipPathUnits="userSpaceOnUse"
       id="clipPath3694"><path
         d="m 300,250 20,0 0,20 -20,0 0,-20 z"
         id="path3696"
         inkscape:connector-curvature="0" /></clipPath><clipPath
       clipPathUnits="userSpaceOnUse"
       id="clipPath3706"><path
         d="M 0,0 600,0 600,300 0,300 0,0 Z"
         id="path3708"
         inkscape:connector-curvature="0" /></clipPath><clipPath
       clipPathUnits="userSpaceOnUse"
       id="clipPath3746"><path
         d="m 0,0 178.255,0 0,270 L 0,270 0,0 Z"
         id="path3748"
         inkscape:connector-curvature="0" /></clipPath><clipPath
       clipPathUnits="userSpaceOnUse"
       id="clipPath3778"><path
         d="M 0,300 600,300 600,0 0,0 0,300 Z"
         id="path3780"
         inkscape:connector-curvature="0" /></clipPath></defs><sodipodi:namedview
     pagecolor="#ffffff"
     bordercolor="#666666"
     borderopacity="1"
     objecttolerance="10"
     gridtolerance="10"
     guidetolerance="10"
     inkscape:pageopacity="0"
     inkscape:pageshadow="2"
     inkscape:window-width="1920"
     inkscape:window-height="1018"
     id="namedview3338"
     showgrid="false"
     inkscape:zoom="1.4594684"
     inkscape:cx="249.57369"
     inkscape:cy="188.5187"
     inkscape:window-x="-8"
     inkscape:window-y="-8"
     inkscape:window-maximized="1"
     inkscape:current-layer="g3344" /><g
     id="g3344"
     inkscape:groupmode="layer"
     inkscape:label="rogbot-sprite"
     transform="matrix(1.25,0,0,-1.25,0,300)"><g
       id="g3346"
       transform="matrix(0.79991155,0,0,0.79959109,0,0.12267301)"><g
         id="g3348"
         clip-path="url(#clipPath3350)"><g
           id="g3354"
           transform="translate(52.8,298.3)"><path
             d="m 0,0 c 0.3,0 0.5,-0.2 0.5,-0.5 l 0,-15.5 c 0,-0.3 -0.2,-0.5 -0.5,-0.5 -0.3,0 -0.5,0.2 -0.5,0.5 l 0,3.6 -19.6,0 0,-3.6 c 0,-0.3 -0.2,-0.5 -0.5,-0.5 -0.3,0 -0.5,0.2 -0.5,0.5 l 0,12.7 c 0,0.3 0.2,0.5 0.5,0.5 0.3,0 0.5,-0.2 0.5,-0.5 l 0,-6.2 19.5,0 0,9 C -0.5,-0.2 -0.3,0 0,0 m 0,1.7 c -1.2,0 -2.2,-1 -2.2,-2.2 l 0,-7.2 -16.2,0 0,5.6 c -1.9,2.2 -4.4,0.8 -4.4,-1.2 l 0,-13.8 c 1.9,-2.3 4.4,-0.9 4.4,1.1 l 0,1.9 16.2,0 0,-2.9 c 1.9,-2.3 4.4,-0.9 4.4,1.1 l 0,15.4 c 0,1.2 -1,2.2 -2.2,2.2"
             style="fill:#ffffff;fill-opacity:1;fill-rule:nonzero;stroke:none"
             id="path3356"
             inkscape:connector-curvature="0" /></g><g
           id="g3358"
           transform="translate(49.4,293.2)"><path
             d="m 0,0 c 0.3,0 0.6,0 0.8,-0.1 l 0.3,0 0,-0.3 0,-1.9 0,-0.2 C 1.1,-2.6 1,-2.7 0.9,-2.7 l -0.2,0 -3.3,0 -0.4,0 0.1,0.4 c 0.1,0.7 0.4,1.3 0.9,1.7 0.5,0.4 1.1,0.6 2,0.6 M 0,1.3 C -1.2,1.3 -2.2,1 -2.8,0.4 -3.4,-0.2 -3.9,-1 -4.1,-2 l -0.3,-2 1.9,0 3.3,0 1.6,0 0,1.7 0,1.9 L 2.4,1 1,1.2 C 0.7,1.2 0.4,1.3 0,1.3"
             style="fill:#ffffff;fill-opacity:1;fill-rule:nonzero;stroke:none"
             id="path3360"
             inkscape:connector-curvature="0" /></g><g
           id="g3362"
           transform="translate(113.6,293.3)"><path
             d="m 0,0 c -1.3,1.5 -3.3,1.9 -4.2,2 -0.6,1.1 -2.4,4 -5.4,4.7 l -0.2,0 -4.8,0 c -3.8,0 -5.8,-2.9 -6.5,-4.8 -0.5,0 -1.1,-0.4 -1.5,-0.9 -1.5,-1.9 -0.9,-5.8 -0.8,-6.2 0.1,-0.4 0.4,-0.6 0.8,-0.6 l 1.4,0 c 0.5,-1.4 1.8,-2.5 3.4,-2.5 1.6,0 2.9,1 3.4,2.5 l 6.2,0 c 0.5,-1.4 1.8,-2.5 3.4,-2.5 1.6,0 2.9,1 3.4,2.5 l 2.1,0 c 0.4,0 0.7,0.3 0.8,0.7 C 1.6,-3 1.1,-1.3 0,0 m -11.1,5.1 1.3,0 C -8,4.6 -6.7,3.1 -6,2 l -5.1,0 0,3.1 z m -3.4,0 2.6,0 0,-3.1 -7.4,0 c 0.7,1.2 2,3.1 4.8,3.1 M -15.8,-5 c -0.1,-1 -0.9,-1.7 -2,-1.7 -1.1,0 -1.9,0.8 -2,1.7 l 0,0.2 c 0,1.1 0.9,1.9 2,1.9 1.1,0 2,-0.9 2,-2 l 0,-0.1 z m 12.9,0 c -0.1,-1 -0.9,-1.7 -2,-1.7 -1,0 -1.9,0.8 -2,1.7 l 0,0.2 c 0,1.1 0.9,1.9 2,1.9 1.1,0 2,-0.9 2,-2 l 0,-0.1 z m 1.5,0.7 c -0.3,1.7 -1.7,3 -3.5,3 -1.8,0 -3.2,-1.3 -3.5,-3 l -5.9,0 c -0.3,1.7 -1.7,3 -3.5,3 -1.8,0 -3.2,-1.3 -3.5,-3 l -0.6,0 c -0.2,1.4 -0.2,3.5 0.5,4.3 0.2,0.3 0.5,0.4 0.9,0.4 l 15.9,0 c 0,0 2.2,0 3.5,-1.5 0.7,-0.8 1,-1.9 1,-3.2 l -1.3,0 z"
             style="fill:#ffffff;fill-opacity:1;fill-rule:nonzero;stroke:none"
             id="path3364"
             inkscape:connector-curvature="0" /></g><g
           id="g3366"
           transform="translate(21.441,297.6889)"><path
             d="M 0,0 0,0 -3.7,-3.7 C -3.9,-3.9 -4.2,-4 -4.5,-4 l -12.4,1.5 -0.8,-0.8 8.8,-3.5 c 0.2,0 0.3,-0.1 0.4,-0.2 0.4,-0.4 0.4,-1 0,-1.4 l -4.1,-4.1 c -0.2,-0.2 -0.5,-0.3 -0.8,-0.3 l -4.2,0.6 -1.1,-1.1 4.4,-2.1 c 0.2,-0.1 0.3,-0.2 0.4,-0.4 l 2,-4.3 1.1,1.1 -0.6,4.2 c -0.1,0.3 0,0.6 0.3,0.9 l 4.1,4.1 c 0.1,0.1 0.2,0.2 0.3,0.2 0.5,0.2 1.1,0 1.3,-0.5 l 3.6,-8.8 0.8,0.8 -1.5,12.1 c 0,0.3 0,0.6 0.3,0.8 l 3.7,3.7 C 2.4,-0.5 1,1 0,0 m -1.4,1.4 0,0 c 2.8,2.8 6.9,-1.5 4.2,-4.2 l -3.4,-3.4 1.4,-12.3 c 0,-0.3 -0.1,-0.6 -0.3,-0.8 l -2.2,-2.2 c -0.4,-0.4 -1,-0.4 -1.4,0 -0.1,0.1 -0.2,0.3 -0.2,0.4 l -3.5,8.8 -2.7,-2.7 0.6,-4.2 c 0,-0.3 -0.1,-0.6 -0.3,-0.8 l -2.3,-2.3 c -0.4,-0.4 -1,-0.4 -1.4,0 -0.1,0.1 -0.2,0.2 -0.2,0.3 l -2.5,5.1 -5.3,2.6 c -0.5,0.2 -0.7,0.8 -0.4,1.3 0,0.1 0.1,0.2 0.2,0.3 l 2.3,2.3 c 0.2,0.2 0.5,0.3 0.8,0.3 l 4.2,-0.6 2.7,2.7 -8.6,3.4 c -0.5,0.2 -0.8,0.8 -0.6,1.3 0.1,0.1 0.1,0.2 0.2,0.3 l 2.2,2.2 c 0.2,0.2 0.6,0.3 0.9,0.3 l 12.3,-1.4 3.3,3.3 z"
             style="fill:#ffffff;fill-opacity:1;fill-rule:nonzero;stroke:none"
             id="path3368"
             inkscape:connector-curvature="0" /></g><g
           id="g3370"
           transform="translate(9.5,248.0002)"><path
             d="m 0,0 -6.7,6.4 c -1.8,1.8 -2.8,4.1 -2.8,6.5 0,2.4 1,4.7 2.8,6.4 1.8,1.8 4.2,2.7 6.7,2.7 2.5,0 4.9,-0.9 6.7,-2.7 3.7,-3.6 3.7,-9.3 0,-12.9 L 0,0 Z m 0,20 c -2,0 -3.9,-0.7 -5.3,-2.1 -1.4,-1.3 -2.2,-3.1 -2.2,-5 0,-1.9 0.8,-3.7 2.2,-5.1 L 0,2.7 5.3,7.8 c 2.9,2.8 2.9,7.3 0,10.1 C 3.9,19.3 2,20 0,20"
             style="fill:#00bce4;fill-opacity:1;fill-rule:nonzero;stroke:none"
             id="path3372"
             inkscape:connector-curvature="0" /></g><g
           id="g3374"
           transform="translate(6,258.7002)"><path
             d="M 0,0 2.5,5.5 C 2.7,5.9 3,6.1 3.4,6.1 l 0.1,0 C 3.9,6.1 4.2,5.9 4.4,5.5 L 6.9,0 C 7,-0.1 7,-0.2 7,-0.3 7,-0.7 6.7,-1 6.2,-1 5.8,-1 5.6,-0.8 5.4,-0.5 l -0.5,1.1 -3,0 -0.5,-1.1 C 1.3,-0.8 1,-1 0.7,-1 0.3,-1 0,-0.7 0,-0.3 c -0.1,0 0,0.1 0,0.3 m 4.5,1.9 -1,2.3 -1,-2.3 2,0 z"
             style="fill:#00bce4;fill-opacity:1;fill-rule:nonzero;stroke:none"
             id="path3376"
             inkscape:connector-curvature="0" /></g><g
           id="g3378"
           transform="translate(39.5,248.1002)"><path
             d="m 0,0 -6.7,6.4 c -1.8,1.7 -2.8,4 -2.8,6.4 0,2.4 1,4.7 2.8,6.4 1.8,1.7 4.2,2.7 6.7,2.7 2.5,0 4.9,-0.9 6.7,-2.7 3.7,-3.6 3.7,-9.3 0,-12.9 L 0,0 Z m 0,20 c -2,0 -3.9,-0.7 -5.3,-2.1 -1.4,-1.4 -2.2,-3.1 -2.2,-5.1 0,-1.9 0.8,-3.7 2.2,-5.1 L 0,2.6 5.3,7.7 C 8.2,10.5 8.2,15 5.3,17.8 3.9,19.3 2,20 0,20"
             style="fill:#00bce4;fill-opacity:1;fill-rule:nonzero;stroke:none"
             id="path3380"
             inkscape:connector-curvature="0" /></g><g
           id="g3382"
           transform="translate(36.4,264.0002)"><path
             d="m 0,0 c 0,0.4 0.4,0.8 0.8,0.8 l 2.6,0 C 4.2,0.8 4.9,0.6 5.3,0.2 5.6,-0.1 5.8,-0.5 5.8,-1 5.8,-1.8 5.4,-2.2 4.9,-2.5 5.7,-2.8 6.3,-3.3 6.3,-4.2 6.3,-5.5 5.2,-6.1 3.6,-6.1 l -2.6,0 c -0.4,0 -0.8,0.3 -0.8,0.8 L 0.2,0 0,0 Z m 3,-2.1 c 0.7,0 1.1,0.2 1.1,0.7 0,0.5 -0.4,0.7 -1,0.7 l -1.5,0 0,-1.5 1.4,0 0,0.1 z m 0.5,-2.8 c 0.7,0 1.1,0.2 1.1,0.8 0,0.5 -0.4,0.8 -1.2,0.8 l -1.8,0 0,-1.6 1.9,0 z"
             style="fill:#00bce4;fill-opacity:1;fill-rule:nonzero;stroke:none"
             id="path3384"
             inkscape:connector-curvature="0" /></g><g
           id="g3386"
           transform="translate(68.2,260.8002)"><path
             d="m 0,0 c -0.1,0 -0.2,0 -0.3,0.1 -0.1,0.1 -0.1,0.2 -0.1,0.3 0,0.1 0,0.2 0.1,0.3 0.1,0.1 0.2,0.1 0.3,0.1 l 0.1,0 0,0.9 -0.1,0 C -0.4,1.7 -0.7,1.6 -0.9,1.3 -1.1,1.1 -1.3,0.7 -1.3,0.4 c 0,-0.4 0.2,-0.7 0.4,-0.9 0.2,-0.2 0.6,-0.4 0.9,-0.4 l 0.1,0 L 0,0 c 0.1,0 0,0 0,0"
             style="fill:#00bce4;fill-opacity:1;fill-rule:nonzero;stroke:none"
             id="path3388"
             inkscape:connector-curvature="0" /></g><g
           id="g3390"
           transform="translate(70.9,258.6002)"><path
             d="m 0,0 0,0 c -0.2,-0.2 -0.4,-0.6 -0.4,-0.9 0,-0.4 0.1,-0.7 0.4,-0.9 0.2,-0.2 0.6,-0.4 0.9,-0.4 0.4,0 0.7,0.1 0.9,0.4 0.2,0.2 0.4,0.6 0.4,0.9 0,0.4 -0.1,0.7 -0.4,0.9 L 0,0 c 0,0.1 0,0 0,0 m 0.6,-0.6 c 0.1,0.1 0.2,0.1 0.3,0.1 0.1,0 0.2,0 0.3,-0.1 0.1,-0.1 0.1,-0.2 0.1,-0.3 0,-0.1 0,-0.2 -0.1,-0.3 C 1.1,-1.3 1,-1.3 0.9,-1.3 c -0.1,0 -0.2,0 -0.3,0.1 -0.1,0.1 -0.1,0.2 -0.1,0.3 0,0.1 0,0.2 0.1,0.3"
             style="fill:#00bce4;fill-opacity:1;fill-rule:nonzero;stroke:none"
             id="path3392"
             inkscape:connector-curvature="0" /></g><g
           id="g3394"
           transform="translate(68.3,259.0002)"><path
             d="m 0,0 c 0,0 -0.1,0 0,0 -0.4,0 -0.8,-0.1 -1,-0.4 -0.2,-0.2 -0.4,-0.6 -0.4,-0.9 0,-0.4 0.2,-0.7 0.4,-0.9 0.2,-0.2 0.6,-0.4 0.9,-0.4 0.4,0 0.7,0.1 0.9,0.4 0.2,0.2 0.4,0.6 0.4,0.9 0,0.4 -0.1,0.7 -0.4,0.9 L 0,-0.4 0,0 Z m 0.2,-1 0,0 c 0.1,-0.1 0.1,-0.2 0.1,-0.3 0,-0.1 0,-0.2 -0.1,-0.3 -0.1,-0.1 -0.2,-0.1 -0.3,-0.1 -0.1,0 -0.2,0 -0.3,0.1 -0.1,0.1 -0.1,0.2 -0.1,0.3 0,0.1 0,0.2 0.1,0.3 0.1,0.1 0.2,0.1 0.3,0.1 0.1,0 0.2,0 0.3,-0.1"
             style="fill:#00bce4;fill-opacity:1;fill-rule:nonzero;stroke:none"
             id="path3396"
             inkscape:connector-curvature="0" /></g><g
           id="g3398"
           transform="translate(74.4,258.6002)"><path
             d="m 0,0 c -0.2,-0.2 -0.4,-0.6 -0.4,-0.9 0,-0.4 0.2,-0.7 0.4,-0.9 0.2,-0.2 0.6,-0.4 0.9,-0.4 0.3,0 0.7,0.1 0.9,0.4 0.2,0.2 0.4,0.6 0.4,0.9 C 2.2,-0.5 2,-0.2 1.8,0 L 0,0 c 0,0.1 0,0 0,0 m 0.7,-0.6 c 0.1,0.1 0.2,0.1 0.3,0.1 0.1,0 0.2,0 0.3,-0.1 0.1,-0.1 0.1,-0.2 0.1,-0.3 0,-0.1 0,-0.2 -0.1,-0.3 C 1.2,-1.3 1.1,-1.3 1,-1.3 c -0.1,0 -0.2,0 -0.3,0.1 -0.1,0.1 -0.1,0.2 -0.1,0.3 -0.1,0.1 0,0.2 0.1,0.3"
             style="fill:#00bce4;fill-opacity:1;fill-rule:nonzero;stroke:none"
             id="path3400"
             inkscape:connector-curvature="0" /></g><g
           id="g3402"
           transform="translate(64.7,252.9002)"><path
             d="M 0,0 C 0.4,0 0.7,0.1 0.9,0.4 1.1,0.6 1.3,1 1.3,1.3 1.3,1.7 1.2,2 0.9,2.2 0.7,2.4 0.3,2.6 0,2.6 -0.4,2.6 -0.7,2.5 -0.9,2.2 -1.1,2 -1.3,1.6 -1.3,1.3 -1.3,1 -1.1,0.6 -0.9,0.4 -0.7,0.2 -0.4,0 0,0 m -0.3,1.6 c 0.1,0.1 0.2,0.1 0.3,0.1 0.1,0 0.2,0 0.3,-0.1 C 0.4,1.5 0.4,1.4 0.4,1.3 0.4,1.2 0.4,1.1 0.3,1 0.2,0.9 0.1,0.9 0,0.9 c -0.1,0 -0.2,0 -0.3,0.1 -0.1,0.1 -0.1,0.2 -0.1,0.3 0,0.1 0,0.2 0.1,0.3"
             style="fill:#00bce4;fill-opacity:1;fill-rule:nonzero;stroke:none"
             id="path3404"
             inkscape:connector-curvature="0" /></g><g
           id="g3406"
           transform="translate(63.7,256.8002)"><path
             d="M 0,0 C 0.2,-0.2 0.6,-0.4 0.9,-0.4 1.3,-0.4 1.6,-0.3 1.8,0 2,0.2 2.2,0.6 2.2,0.9 2.2,1.3 2.1,1.6 1.8,1.8 1.7,2.1 1.3,2.2 1,2.2 0.6,2.2 0.3,2.1 0.1,1.8 -0.1,1.6 -0.3,1.2 -0.3,0.9 -0.3,0.6 -0.2,0.2 0,0 m 0.7,1.2 0,0 C 0.8,1.3 0.9,1.3 1,1.3 1.1,1.3 1.2,1.3 1.3,1.2 1.4,1.1 1.4,1 1.4,0.9 1.4,0.8 1.4,0.7 1.3,0.6 1.2,0.5 1.1,0.5 1,0.5 0.9,0.5 0.8,0.5 0.7,0.6 0.6,0.7 0.6,0.8 0.6,0.9 c 0,0.1 0,0.2 0.1,0.3"
             style="fill:#00bce4;fill-opacity:1;fill-rule:nonzero;stroke:none"
             id="path3408"
             inkscape:connector-curvature="0" /></g><g
           id="g3410"
           transform="translate(78.5,251.5002)"><path
             d="m 0,0 -17,0 0,12.5 6.8,0 0,0.9 -6.8,0 0,3.6 1.5,0 0,-1.1 c 0,-0.4 0.3,-0.8 0.8,-0.8 0.4,0 0.8,0.3 0.8,0.8 l 0,1.1 2.6,0 0,-1.1 c 0,-0.4 0.3,-0.8 0.8,-0.8 0.1,0 0.2,0 0.3,0.1 l 0,3.3 -7.5,0 c -0.4,0 -0.8,-0.3 -0.8,-0.8 l 0,-18.5 c 0,-0.4 0.3,-0.8 0.8,-0.8 l 18.5,0 c 0.4,0 0.8,0.3 0.8,0.8 l 0,7.9 -1.5,0 L 0.1,0 0,0 Z"
             style="fill:#00bce4;fill-opacity:1;fill-rule:nonzero;stroke:none"
             id="path3412"
             inkscape:connector-curvature="0" /></g><g
           id="g3414"
           transform="translate(67.3,253.3002)"><path
             d="M 0,0 C 0.2,-0.2 0.6,-0.4 0.9,-0.4 1.3,-0.4 1.6,-0.3 1.8,0 2,0.2 2.2,0.6 2.2,0.9 2.2,1.3 2.1,1.6 1.8,1.8 1.6,2 1.2,2.2 0.9,2.2 0.5,2.2 0.2,2.1 0,1.8 -0.2,1.6 -0.4,1.2 -0.4,0.9 -0.4,0.6 -0.2,0.3 0,0 M 0.6,1.2 C 0.7,1.3 0.8,1.3 0.9,1.3 1,1.3 1.1,1.3 1.2,1.2 1.3,1.1 1.3,1 1.3,0.9 1.3,0.8 1.3,0.7 1.2,0.6 1.1,0.5 1,0.5 0.9,0.5 0.8,0.5 0.7,0.5 0.6,0.6 0.5,0.7 0.5,0.8 0.5,0.9 0.5,1 0.6,1.1 0.6,1.2"
             style="fill:#00bce4;fill-opacity:1;fill-rule:nonzero;stroke:none"
             id="path3416"
             inkscape:connector-curvature="0" /></g><g
           id="g3418"
           transform="translate(70.9,253.3002)"><path
             d="M 0,0 C 0.2,-0.2 0.6,-0.4 0.9,-0.4 1.3,-0.4 1.6,-0.3 1.8,0 2,0.2 2.2,0.6 2.2,0.9 2.2,1.3 2.1,1.6 1.8,1.8 1.6,2 1.2,2.2 0.9,2.2 0.5,2.2 0.2,2.1 0,1.8 -0.2,1.6 -0.4,1.2 -0.4,0.9 -0.4,0.6 -0.3,0.3 0,0 M 0.6,1.2 C 0.7,1.3 0.8,1.3 0.9,1.3 1,1.3 1.1,1.3 1.2,1.2 1.3,1.1 1.3,1 1.3,0.9 1.3,0.8 1.3,0.7 1.2,0.6 1.1,0.5 1,0.5 0.9,0.5 0.8,0.5 0.7,0.5 0.6,0.6 0.5,0.7 0.5,0.8 0.5,0.9 c 0,0.1 0,0.2 0.1,0.3"
             style="fill:#00bce4;fill-opacity:1;fill-rule:nonzero;stroke:none"
             id="path3420"
             inkscape:connector-curvature="0" /></g><g
           id="g3422"
           transform="translate(74.2,268.3002)"><path
             d="m 0,0 0,0 2.9,0 -3,-3 c -0.3,-0.3 -0.3,-0.9 0,-1.2 0.3,-0.3 0.9,-0.3 1.2,0 l 3,3 0,-2.9 c 0,-0.5 0.4,-0.8 0.8,-0.8 0.5,0 0.8,0.4 0.8,0.8 l 0,4.9 C 5.7,1.3 5.3,1.6 4.9,1.6 L 0,1.6 C -0.5,1.6 -0.8,1.2 -0.8,0.8 -0.8,0.4 -0.4,0 0,0"
             style="fill:#00bce4;fill-opacity:1;fill-rule:nonzero;stroke:none"
             id="path3424"
             inkscape:connector-curvature="0" /></g><g
           id="g3426"
           transform="translate(79.6,259.0002)"><path
             d="m 0,0 c 0.2,0 0.4,0.2 0.4,0.4 l 0,2.3 C 0.4,2.9 0.2,3.1 0,3.1 -0.2,3.1 -0.4,2.9 -0.4,2.7 l 0,-1.9 -9.3,0 0,9.3 1.9,0 c 0.2,0 0.4,0.2 0.4,0.4 0,0.2 -0.2,0.4 -0.4,0.4 l -2.3,0 c -0.2,0 -0.4,-0.2 -0.4,-0.4 l 0,-10.2 c 0,-0.2 0.2,-0.4 0.4,-0.4 L 0,-0.1 0,0 Z"
             style="fill:#00bce4;fill-opacity:1;fill-rule:nonzero;stroke:none"
             id="path3428"
             inkscape:connector-curvature="0" /></g><g
           id="g3430"
           transform="translate(98.3,259.0002)"><path
             d="m 0,0 c 0,0 -0.1,0 0,0 -0.4,0 -0.8,-0.1 -1,-0.4 -0.2,-0.2 -0.4,-0.6 -0.4,-0.9 0,-0.4 0.2,-0.7 0.4,-0.9 0.2,-0.2 0.6,-0.4 0.9,-0.4 0.4,0 0.7,0.1 0.9,0.4 0.2,0.2 0.4,0.6 0.4,0.9 0,0.4 -0.1,0.7 -0.4,0.9 L 0,-0.4 0,0 Z m 0.2,-1 0,0 c 0.1,-0.1 0.1,-0.2 0.1,-0.3 0,-0.1 0,-0.2 -0.1,-0.3 -0.1,-0.1 -0.2,-0.1 -0.3,-0.1 -0.1,0 -0.2,0 -0.3,0.1 -0.1,0.1 -0.1,0.2 -0.1,0.3 0,0.1 0,0.2 0.1,0.3 0.1,0.1 0.2,0.1 0.3,0.1 0.1,0 0.2,0 0.3,-0.1"
             style="fill:#00bce4;fill-opacity:1;fill-rule:nonzero;stroke:none"
             id="path3432"
             inkscape:connector-curvature="0" /></g><g
           id="g3434"
           transform="translate(108.5,251.5002)"><path
             d="m 0,0 -17,0 0,12.5 6.8,0 0,0.9 -6.8,0 0,3.6 1.5,0 0,-1.1 c 0,-0.4 0.3,-0.8 0.8,-0.8 0.4,0 0.8,0.3 0.8,0.8 l 0,1.1 2.6,0 0,-1.1 c 0,-0.4 0.3,-0.8 0.8,-0.8 0.1,0 0.2,0 0.3,0.1 l 0,3.3 -7.5,0 c -0.4,0 -0.8,-0.3 -0.8,-0.8 l 0,-18.5 c 0,-0.4 0.3,-0.8 0.8,-0.8 l 18.5,0 c 0.4,0 0.8,0.3 0.8,0.8 l 0,7.9 -1.5,0 L 0.1,0 0,0 Z"
             style="fill:#00bce4;fill-opacity:1;fill-rule:nonzero;stroke:none"
             id="path3436"
             inkscape:connector-curvature="0" /></g><g
           id="g3438"
           transform="translate(104.4,258.6002)"><path
             d="m 0,0 c -0.2,-0.2 -0.4,-0.6 -0.4,-0.9 0,-0.4 0.2,-0.7 0.4,-0.9 0.2,-0.2 0.6,-0.4 0.9,-0.4 0.3,0 0.7,0.1 0.9,0.4 0.2,0.2 0.4,0.6 0.4,0.9 C 2.2,-0.5 2,-0.2 1.8,0 L 0,0 c 0,0.1 0,0 0,0 m 0.7,-0.6 c 0.1,0.1 0.2,0.1 0.3,0.1 0.1,0 0.2,0 0.3,-0.1 0.1,-0.1 0.1,-0.2 0.1,-0.3 0,-0.1 0,-0.2 -0.1,-0.3 C 1.2,-1.3 1.1,-1.3 1,-1.3 c -0.1,0 -0.2,0 -0.3,0.1 -0.1,0.1 -0.1,0.2 -0.1,0.3 -0.1,0.1 0,0.2 0.1,0.3"
             style="fill:#00bce4;fill-opacity:1;fill-rule:nonzero;stroke:none"
             id="path3440"
             inkscape:connector-curvature="0" /></g><g
           id="g3442"
           transform="translate(98.2,260.8002)"><path
             d="m 0,0 c -0.1,0 -0.2,0 -0.3,0.1 -0.1,0.1 -0.1,0.2 -0.1,0.3 0,0.1 0,0.2 0.1,0.3 0.1,0.1 0.2,0.1 0.3,0.1 l 0.1,0 0,0.9 -0.1,0 C -0.4,1.7 -0.7,1.6 -0.9,1.3 -1.1,1.1 -1.3,0.7 -1.3,0.4 c 0,-0.4 0.2,-0.7 0.4,-0.9 0.2,-0.2 0.6,-0.4 0.9,-0.4 l 0.1,0 L 0,0 c 0.1,0 0,0 0,0"
             style="fill:#00bce4;fill-opacity:1;fill-rule:nonzero;stroke:none"
             id="path3444"
             inkscape:connector-curvature="0" /></g><g
           id="g3446"
           transform="translate(100.9,258.6002)"><path
             d="m 0,0 0,0 c -0.2,-0.2 -0.4,-0.6 -0.4,-0.9 0,-0.4 0.1,-0.7 0.4,-0.9 0.2,-0.2 0.6,-0.4 0.9,-0.4 0.4,0 0.7,0.1 0.9,0.4 0.2,0.2 0.4,0.6 0.4,0.9 0,0.4 -0.1,0.7 -0.4,0.9 L 0,0 c 0,0.1 0,0 0,0 m 0.6,-0.6 c 0.1,0.1 0.2,0.1 0.3,0.1 0.1,0 0.2,0 0.3,-0.1 0.1,-0.1 0.1,-0.2 0.1,-0.3 0,-0.1 0,-0.2 -0.1,-0.3 C 1.1,-1.3 1,-1.3 0.9,-1.3 c -0.1,0 -0.2,0 -0.3,0.1 -0.1,0.1 -0.1,0.2 -0.1,0.3 0,0.1 0,0.2 0.1,0.3"
             style="fill:#00bce4;fill-opacity:1;fill-rule:nonzero;stroke:none"
             id="path3448"
             inkscape:connector-curvature="0" /></g><g
           id="g3450"
           transform="translate(100.9,253.3002)"><path
             d="M 0,0 C 0.2,-0.2 0.6,-0.4 0.9,-0.4 1.3,-0.4 1.6,-0.3 1.8,0 2,0.2 2.2,0.6 2.2,0.9 2.2,1.3 2.1,1.6 1.8,1.8 1.6,2 1.2,2.2 0.9,2.2 0.5,2.2 0.2,2.1 0,1.8 -0.2,1.6 -0.4,1.2 -0.4,0.9 -0.4,0.6 -0.3,0.3 0,0 M 0.6,1.2 C 0.7,1.3 0.8,1.3 0.9,1.3 1,1.3 1.1,1.3 1.2,1.2 1.3,1.1 1.3,1 1.3,0.9 1.3,0.8 1.3,0.7 1.2,0.6 1.1,0.5 1,0.5 0.9,0.5 0.8,0.5 0.7,0.5 0.6,0.6 0.5,0.7 0.5,0.8 0.5,0.9 c 0,0.1 0,0.2 0.1,0.3"
             style="fill:#00bce4;fill-opacity:1;fill-rule:nonzero;stroke:none"
             id="path3452"
             inkscape:connector-curvature="0" /></g><g
           id="g3454"
           transform="translate(97.3,253.3002)"><path
             d="M 0,0 C 0.2,-0.2 0.6,-0.4 0.9,-0.4 1.3,-0.4 1.6,-0.3 1.8,0 2,0.2 2.2,0.6 2.2,0.9 2.2,1.3 2.1,1.6 1.8,1.8 1.6,2 1.2,2.2 0.9,2.2 0.5,2.2 0.2,2.1 0,1.8 -0.2,1.6 -0.4,1.2 -0.4,0.9 -0.4,0.6 -0.2,0.3 0,0 M 0.6,1.2 C 0.7,1.3 0.8,1.3 0.9,1.3 1,1.3 1.1,1.3 1.2,1.2 1.3,1.1 1.3,1 1.3,0.9 1.3,0.8 1.3,0.7 1.2,0.6 1.1,0.5 1,0.5 0.9,0.5 0.8,0.5 0.7,0.5 0.6,0.6 0.5,0.7 0.5,0.8 0.5,0.9 0.5,1 0.6,1.1 0.6,1.2"
             style="fill:#00bce4;fill-opacity:1;fill-rule:nonzero;stroke:none"
             id="path3456"
             inkscape:connector-curvature="0" /></g><g
           id="g3458"
           transform="translate(94.7,252.9002)"><path
             d="M 0,0 C 0.4,0 0.7,0.1 0.9,0.4 1.1,0.6 1.3,1 1.3,1.3 1.3,1.7 1.2,2 0.9,2.2 0.7,2.4 0.3,2.6 0,2.6 -0.4,2.6 -0.7,2.5 -0.9,2.2 -1.1,2 -1.3,1.6 -1.3,1.3 -1.3,1 -1.1,0.6 -0.9,0.4 -0.7,0.2 -0.4,0 0,0 m -0.3,1.6 c 0.1,0.1 0.2,0.1 0.3,0.1 0.1,0 0.2,0 0.3,-0.1 C 0.4,1.5 0.4,1.4 0.4,1.3 0.4,1.2 0.4,1.1 0.3,1 0.2,0.9 0.1,0.9 0,0.9 c -0.1,0 -0.2,0 -0.3,0.1 -0.1,0.1 -0.1,0.2 -0.1,0.3 0,0.1 0,0.2 0.1,0.3"
             style="fill:#00bce4;fill-opacity:1;fill-rule:nonzero;stroke:none"
             id="path3460"
             inkscape:connector-curvature="0" /></g><g
           id="g3462"
           transform="translate(93.7,256.8002)"><path
             d="M 0,0 C 0.2,-0.2 0.6,-0.4 0.9,-0.4 1.3,-0.4 1.6,-0.3 1.8,0 2,0.2 2.2,0.6 2.2,0.9 2.2,1.3 2.1,1.6 1.8,1.8 1.7,2.1 1.3,2.2 1,2.2 0.6,2.2 0.3,2.1 0.1,1.8 -0.1,1.6 -0.3,1.2 -0.3,0.9 -0.3,0.6 -0.2,0.2 0,0 m 0.7,1.2 0,0 C 0.8,1.3 0.9,1.3 1,1.3 1.1,1.3 1.2,1.3 1.3,1.2 1.4,1.1 1.4,1 1.4,0.9 1.4,0.8 1.4,0.7 1.3,0.6 1.2,0.5 1.1,0.5 1,0.5 0.9,0.5 0.8,0.5 0.7,0.6 0.6,0.7 0.6,0.8 0.6,0.9 c 0,0.1 0,0.2 0.1,0.3"
             style="fill:#00bce4;fill-opacity:1;fill-rule:nonzero;stroke:none"
             id="path3464"
             inkscape:connector-curvature="0" /></g><g
           id="g3466"
           transform="translate(109.2,265.1002)"><path
             d="m 0,0 0,0 -2.9,0 3,3 c 0.3,0.3 0.3,0.9 0,1.2 -0.3,0.3 -0.9,0.3 -1.2,0 l -3,-3 0,2.9 c 0,0.5 -0.4,0.8 -0.8,0.8 -0.5,0 -0.8,-0.4 -0.8,-0.8 l 0,-4.9 c 0,-0.5 0.4,-0.8 0.8,-0.8 l 4.9,0 c 0.5,0 0.8,0.4 0.8,0.8 C 0.8,-0.4 0.4,0 0,0"
             style="fill:#00bce4;fill-opacity:1;fill-rule:nonzero;stroke:none"
             id="path3468"
             inkscape:connector-curvature="0" /></g><g
           id="g3470"
           transform="translate(109.6,259.0002)"><path
             d="m 0,0 c 0.2,0 0.4,0.2 0.4,0.4 l 0,2.3 C 0.4,2.9 0.2,3.1 0,3.1 -0.2,3.1 -0.4,2.9 -0.4,2.7 l 0,-1.9 -9.3,0 0,9.3 1.9,0 c 0.2,0 0.4,0.2 0.4,0.4 0,0.2 -0.2,0.4 -0.4,0.4 l -2.3,0 c -0.2,0 -0.4,-0.2 -0.4,-0.4 l 0,-10.2 c 0,-0.2 0.2,-0.4 0.4,-0.4 L 0,-0.1 0,0 Z"
             style="fill:#00bce4;fill-opacity:1;fill-rule:nonzero;stroke:none"
             id="path3472"
             inkscape:connector-curvature="0" /></g><g
           id="g3474"
           transform="translate(161.6785,263.8002)"><path
             d="m 0,0 c -0.1,-0.1 -0.1,-0.3 -0.1,-0.4 l 0,-4.2 c 0,-0.5 -0.3,-0.8 -0.7,-0.8 -0.4,0 -0.7,0.3 -0.7,0.7 l 0,5.4 c 0,1 0.9,1.8 2,1.9 1.3,0.1 2.6,0.1 4,0 1.1,-0.1 1.9,-1 1.9,-2.1 l 0,-5 C 6.4,-5.1 6.1,-5.4 5.7,-5.3 5.2,-5.3 5,-5 5,-4.5 L 5,-0.4 5,0 C 5,0.1 4.9,0.1 4.9,0.1 L 4.8,0 l 0,-0.4 0,-11.8 0,-0.5 c -0.1,-0.6 -0.4,-0.9 -1,-0.9 -0.6,0 -0.9,0.3 -1,0.9 l 0,0.7 0,6.3 0,0.4 -0.2,0 c 0,-0.1 -0.1,-0.3 -0.1,-0.4 l 0,-6.8 c 0,-0.7 -0.4,-1.1 -1,-1.1 -0.6,0 -1,0.4 -1,0.9 l 0,1.9 0,10.3 0,0.5 C 0.2,-0.1 0.1,-0.1 0,0 Z"
             style="fill:none;stroke:#00bce4;stroke-width:1.5;stroke-linecap:butt;stroke-linejoin:miter;stroke-miterlimit:10;stroke-dasharray:none;stroke-opacity:1"
             id="path3476"
             inkscape:connector-curvature="0" /></g><g
           id="g3478"
           transform="translate(162.3784,268.3002)"><path
             d="M 0,0 C 0,0.9 0.7,1.7 1.6,1.7 2.5,1.7 3.3,1 3.3,0 3.3,-0.9 2.5,-1.7 1.6,-1.7 0.7,-1.6 0,-0.9 0,0 Z"
             style="fill:none;stroke:#00bce4;stroke-width:1.5;stroke-linecap:butt;stroke-linejoin:miter;stroke-miterlimit:10;stroke-dasharray:none;stroke-opacity:1"
             id="path3480"
             inkscape:connector-curvature="0" /></g><g
           id="g3482"
           transform="translate(154.4785,256.4002)"><path
             d="m 0,0 c -0.4,0.1 -0.4,-0.1 -0.4,-0.3 l 0,-5 c 0,-0.2 0,-0.4 -0.1,-0.6 -0.1,-0.3 -0.3,-0.5 -0.7,-0.5 -0.3,0 -0.6,0.2 -0.7,0.5 C -2,-5.7 -2,-5.5 -2,-5.3 L -2,0 -3.9,0 c 0.7,2.5 1.3,5 2,7.5 L -2,7.6 C -2.1,7.5 -2.2,7.4 -2.2,7.2 -2.5,6 -2.9,4.7 -3.2,3.5 -3.4,2.9 -3.7,2.6 -4,2.7 c -0.4,0.1 -0.6,0.5 -0.4,1.1 0.4,1.4 0.8,2.9 1.2,4.3 0.3,1.2 1.1,1.7 2.3,1.7 l 1.5,0 C 1.6,9.8 2.4,9.2 2.7,8.3 3.2,6.8 3.6,5.2 4,3.7 L 4,3.4 C 4,3 3.8,2.8 3.5,2.7 3.1,2.6 2.9,2.9 2.8,3.2 2.6,4 2.4,4.7 2.2,5.5 2,6.1 1.9,6.7 1.7,7.3 1.7,7.4 1.5,7.5 1.4,7.6 L 1.3,7.5 C 2,5 2.7,2.6 3.4,0.1 l -2,0 0,-0.5 0,-5.1 C 1.4,-6 1.1,-6.3 0.7,-6.3 0.3,-6.3 0,-6 0,-5.5 L 0,-4.2 0,0 Z"
             style="fill:none;stroke:#00bce4;stroke-width:1.5;stroke-linecap:butt;stroke-linejoin:miter;stroke-miterlimit:10;stroke-dasharray:none;stroke-opacity:1"
             id="path3484"
             inkscape:connector-curvature="0" /></g><g
           id="g3486"
           transform="translate(154.2785,270.0002)"><path
             d="m 0,0 c 0.9,0 1.6,-0.7 1.6,-1.6 0,-0.9 -0.7,-1.7 -1.6,-1.7 -0.9,0 -1.6,0.7 -1.6,1.6 C -1.7,-0.7 -1,0 0,0 Z"
             style="fill:none;stroke:#00bce4;stroke-width:1.5;stroke-linecap:butt;stroke-linejoin:miter;stroke-miterlimit:10;stroke-dasharray:none;stroke-opacity:1"
             id="path3488"
             inkscape:connector-curvature="0" /></g><g
           id="g3490"
           transform="translate(198.5,264.8864)"><path
             d="m 0,0 c 0,-1.9 -1.5,-3.4 -3.4,-3.4 -1.9,0 -3.4,1.5 -3.4,3.4 0,1.9 1.5,3.4 3.4,3.4 C -1.5,3.4 0,1.9 0,0 m -1.5,0 c 0,1 -0.8,1.9 -1.9,1.9 -1,0 -1.9,-0.8 -1.9,-1.9 0,-1 0.9,-1.9 1.9,-1.9 1,0 1.9,0.9 1.9,1.9 m -0.4,-4.5 2.1,-0.4 0.1,0 c 2.1,-0.6 1.4,-4 -0.9,-3.4 l -2.6,0.5 -2.2,0.4 -0.8,-0.8 -1.1,-1.1 c -0.3,-0.3 -0.8,-0.3 -1.1,0 l -2.2,2.2 -2.2,2.2 c -0.3,0.3 -0.3,0.8 0,1.1 l 1.1,1.1 0.8,0.8 -0.4,2.2 -0.5,2.6 c -0.1,0.2 -0.1,0.4 0,0.7 0.2,1.5 2.2,2.1 3.2,0.8 l 0.3,-0.6 0,-0.1 0.4,-2.1 c 0.4,-2.2 0.8,-3.6 1.7,-4.4 0.7,-0.9 2,-1.3 4.3,-1.7 m 1.7,-1.9 -2.1,0.4 c -2.5,0.5 -4.1,1 -5.2,2.1 -1.1,1.1 -1.6,2.7 -2.1,5.2 L -10,3.4 c -0.1,0.3 -0.5,0.2 -0.5,-0.1 l 0,-0.1 0.5,-2.6 0.5,-2.6 c 0.1,-0.3 0,-0.5 -0.2,-0.7 l -1.1,-1.1 -0.6,-0.6 1.7,-1.7 1.7,-1.7 0.6,0.6 1.1,1.1 c 0.2,0.2 0.4,0.3 0.7,0.2 l 2.6,-0.5 2.6,-0.5 0.1,0 c 0.3,0 0.5,0.4 0.1,0.5 m -14.2,-0.8 c 0.4,0 0.8,-0.3 0.8,-0.8 0,-0.4 -0.3,-0.8 -0.8,-0.8 l -0.5,0 0,-1.4 c 0,-0.2 0,-0.4 -0.1,-0.6 -0.4,-1.8 -3.2,-1.8 -3.5,0.1 l 0,0.6 0,3.9 0,0.1 c 0.1,0.9 0.9,1.7 1.8,1.7 l 2.3,0 c 0.4,0 0.8,-0.3 0.8,-0.8 0,-0.4 -0.3,-0.8 -0.8,-0.8 l -2.3,0 c -0.1,0 -0.3,-0.1 -0.3,-0.2 l 0,-4.1 c 0,-0.3 0.5,-0.3 0.5,0 l 0,2.3 c 0,0.4 0.3,0.8 0.8,0.8 l 1.3,0 z m 2.2,-3.7 c 0,0.4 0.3,0.8 0.8,0.8 0.4,0 0.8,-0.3 0.8,-0.8 l 0,-1.2 c 0,-0.4 -0.4,-0.8 -0.8,-0.8 l -2.3,0 c -0.3,0 -0.3,-0.5 0,-0.5 l 4.1,0 c 0.1,0 0.3,0.1 0.3,0.3 l 0,2.3 c 0,0.4 0.3,0.8 0.8,0.8 0.4,0 0.8,-0.3 0.8,-0.8 l 0,-2.3 c 0,-0.9 -0.8,-1.7 -1.7,-1.8 l -0.1,0 -4,0 -0.5,0 c -1.9,0.3 -2,3.2 0,3.5 l 0.5,0 1.4,0 0,0.5 -0.1,0 z"
             style="fill:#00bce4;fill-opacity:1;fill-rule:nonzero;stroke:none"
             id="path3492"
             inkscape:connector-curvature="0" /></g><g
           id="g3494"
           transform="translate(124.0657,266.6124)"><path
             d="m 0,0 0,0 c -0.5,-0.3 -0.7,-0.8 -0.8,-1.3 -0.1,-0.5 0,-1.1 0.3,-1.5 C 0.1,-3.7 1.3,-3.9 2.2,-3.3 2.6,-3 2.9,-2.5 3,-2 3.1,-1.5 3,-0.9 2.7,-0.5 2.1,0.4 0.9,0.6 0,0 M 1.5,-2.2 C 1.2,-2.4 0.8,-2.3 0.6,-2 0.4,-1.7 0.5,-1.3 0.8,-1.1 1.1,-0.9 1.5,-1 1.7,-1.3 1.9,-1.5 1.8,-2 1.5,-2.2"
             style="fill:#00bce4;fill-opacity:1;fill-rule:nonzero;stroke:none"
             id="path3496"
             inkscape:connector-curvature="0" /></g><g
           id="g3498"
           transform="translate(131.9657,263.2124)"><path
             d="m 0,0 0,0.2 c 0.1,0.9 0,1.7 -0.3,2.5 -0.1,0.2 -0.2,0.4 -0.3,0.7 0,0.1 -0.1,0.1 -0.1,0.2 -0.1,0.1 -0.1,0.3 -0.2,0.4 0,0.1 -0.1,0.1 -0.1,0.2 -1.6,2.2 -4.4,3.1 -6.8,2.3 -0.5,-0.2 -1,-0.4 -1.4,-0.7 -0.1,0 -0.1,-0.1 -0.2,-0.1 -1.2,-0.9 -2,-2.1 -2.4,-3.5 l 0,-0.1 C -12,1.3 -12,0.6 -11.9,-0.2 c 0.1,-0.7 0.4,-1.5 0.8,-2.1 l 0,-0.1 c 0.1,-0.1 0.1,-0.2 0.2,-0.3 0,-0.1 0.1,-0.1 0.2,-0.2 0.8,-1 1.8,-1.7 3,-2.1 0.9,-0.3 1.8,-0.4 2.7,-0.2 0.1,-0.1 0.1,-0.1 0.1,-0.2 0.6,-1 1.3,-1.9 2.6,-1.9 -0.1,-0.6 -0.2,-1.1 0.1,-1.6 0.3,-0.5 0.9,-0.6 1.4,-0.7 -0.1,-0.5 -0.2,-1.1 0.1,-1.6 0.3,-0.5 0.9,-0.6 1.5,-0.7 -0.1,-0.2 -0.1,-0.3 -0.1,-0.5 -0.2,-0.9 0.3,-1.5 1.2,-1.7 0.4,-0.1 0.9,-0.2 1.3,-0.2 0.8,-0.1 1.5,0.3 1.6,1.1 0.1,0.4 0.1,0.8 0.2,1.2 0.2,0.8 0,1.5 -0.5,2.1 -1.7,2.4 -3.3,4.8 -5,7.2 -0.1,0.2 -0.2,0.3 -0.1,0.5 0.3,0.6 0.5,1.2 0.6,1.8 l 0,0.1 c -0.1,0.2 0,0.2 0,0.3 m -1.9,-2.9 c 1.8,-2.5 3.5,-5.1 5.3,-7.6 0.3,-0.4 0.4,-0.7 0.3,-1.2 -0.1,-0.4 -0.1,-0.8 -0.2,-1.2 -0.5,0.1 -1,0.2 -1.5,0.3 0.1,0.3 0.1,0.7 0.2,1 0.1,0.5 -0.1,0.8 -0.6,0.9 -0.3,0.1 -0.7,0.1 -1,0.2 l -0.1,0.1 c 0.1,0.3 0.1,0.7 0.2,1.1 0.1,0.5 -0.1,0.8 -0.6,0.9 -0.3,0.1 -0.7,0.1 -1.1,0.2 0.1,0.4 0.1,0.7 0.2,1.1 0.1,0.6 -0.1,0.9 -0.7,1 -1.6,0.3 -1.3,0.1 -2.2,1.5 0,0 0,0.1 -0.1,0.1 -0.3,0.6 -0.8,0.8 -1.5,0.7 -0.2,0 -0.7,-0.1 -0.7,-0.1 -1.4,0 -2.9,0.7 -3.8,2 -1.5,2.1 -1,5.1 1.2,6.6 2.1,1.5 5,1 6.5,-1.2 1,-1.4 1.1,-3.1 0.5,-4.6 0,0 -0.2,-0.4 -0.3,-0.6 -0.3,-0.4 -0.3,-0.8 0,-1.2"
             style="fill:#00bce4;fill-opacity:1;fill-rule:nonzero;stroke:none"
             id="path3500"
             inkscape:connector-curvature="0" /></g><g
           id="g3502"
           transform="translate(220.9168,269.4871)"><path
             d="m 0,0 2,-6.5 6.5,0 c 0.7,0 1,-1 0.5,-1.5 l -5.3,-4 2,-6.5 c 0.2,-0.8 -0.6,-1.3 -1.2,-0.9 l -5.3,4 -5.3,-4 c -0.6,-0.5 -1.4,0.2 -1.2,0.9 l 2,6.4 -5.3,4 c -0.6,0.5 -0.3,1.5 0.5,1.5 l 6.5,0 2,6.5 C -1.2,0.7 -0.2,0.7 0,0 m 0.7,-7.6 -1.4,4.7 -1.4,-4.6 c -0.1,-0.3 -0.4,-0.6 -0.7,-0.6 l -4.7,0 3.8,-2.9 c 0.3,-0.2 0.4,-0.6 0.3,-0.9 l -1.5,-4.7 3.8,2.9 c 0.3,0.2 0.6,0.2 0.9,0 l 3.8,-2.9 -1.5,4.7 c -0.1,0.3 0,0.7 0.3,0.9 l 3.8,2.9 -4.6,0 C 1.2,-8.2 0.9,-8 0.7,-7.6"
             style="fill:#00bce4;fill-opacity:1;fill-rule:nonzero;stroke:none"
             id="path3504"
             inkscape:connector-curvature="0" /></g><g
           id="g3506"
           transform="translate(14.4785,225.4297)"><path
             d="M 0,0 0.4,-0.9 C 0.8,-0.4 1.4,0 2,0.4 L 1.3,2.1 C 1.1,2.6 0.5,2.8 0,2.6 -0.1,2.5 -0.2,2.5 -0.3,2.4 l -4.1,-4.1 c -0.2,-0.2 -0.3,-0.6 -0.3,-0.9 l 0.6,-4.2 -1.1,-1.1 -2,4.3 c -0.1,0.2 -0.3,0.4 -0.4,0.4 l -4.4,2.2 1.1,1.1 4.2,-0.6 c 0.3,0 0.6,0.1 0.8,0.3 l 4.1,4.1 c 0.4,0.4 0.4,1 0,1.4 C -1.9,5.4 -2,5.5 -2.2,5.5 L -11,9 -10.2,9.8 2.1,8.4 c 0.3,0 0.6,0.1 0.8,0.3 l 3.7,3.7 c 1,0.9 2.4,-0.5 1.5,-1.5 L 4.4,7.2 C 4.2,7 4.1,6.7 4.1,6.4 L 4.7,1.3 c 0.2,0 0.4,0.1 0.6,0.1 0.5,0 0.9,-0.2 1.4,-0.3 l -0.6,5 3.4,3.4 c 2.7,2.7 -1.4,6.9 -4.2,4.2 l -3.4,-3.4 -12.2,1.5 c -0.3,0 -0.6,0 -0.8,-0.3 l -2.2,-2.2 c -0.1,-0.1 -0.2,-0.2 -0.2,-0.3 -0.2,-0.5 0,-1 0.5,-1.2 l 8.8,-3.6 -2.7,-2.7 -4.2,0.6 c -0.3,0 -0.6,0 -0.8,-0.3 l -2.3,-2.3 c -0.1,-0.1 -0.2,-0.2 -0.2,-0.3 -0.2,-0.5 0,-1 0.4,-1.3 l 5.3,-2.6 2.5,-5.1 c 0.1,-0.1 0.1,-0.2 0.2,-0.3 0.4,-0.4 1,-0.4 1.4,0 l 2.3,2.3 C -2.1,-7.6 -2,-7.3 -2,-7 L -2.6,-2.8 0,0 Z"
             style="fill:#00bce4;fill-opacity:1;fill-rule:nonzero;stroke:none"
             id="path3508"
             inkscape:connector-curvature="0" /></g><g
           id="g3510"
           transform="translate(19.8785,224.9297)"><path
             d="M 0,0 C 1.4,0 2.6,-0.6 3.5,-1.5 4.4,-2.4 5,-3.6 5,-5 5,-6.4 4.4,-7.6 3.5,-8.5 2.6,-9.4 1.4,-9.9 0,-9.9 c -1.4,0 -2.6,0.6 -3.5,1.5 -0.9,0.9 -1.5,2.1 -1.5,3.5 0,1.4 0.6,2.6 1.5,3.5 1,0.9 2.2,1.4 3.5,1.4 m -0.5,-2.6 0,0 0,-1.8 -1.8,0 c -0.3,0 -0.5,-0.2 -0.5,-0.6 0,-0.3 0.2,-0.6 0.5,-0.6 l 1.8,0 0,-1.8 c 0,-0.3 0.2,-0.6 0.5,-0.6 0.3,0 0.6,0.2 0.6,0.6 l 0,1.8 1.8,0 c 0.3,0 0.5,0.2 0.5,0.6 0,0.3 -0.2,0.6 -0.5,0.6 l -1.8,0 0,1.8 c 0,0.3 -0.2,0.5 -0.6,0.5 -0.3,0.1 -0.5,-0.1 -0.5,-0.5 m 3.3,0.4 0,0 c -0.7,0.7 -1.7,1.1 -2.7,1.1 -1.1,0 -2,-0.4 -2.7,-1.1 -0.8,-0.7 -1.2,-1.7 -1.2,-2.7 0,-1.1 0.4,-2 1.1,-2.7 0.7,-0.7 1.7,-1.1 2.7,-1.1 1.1,0 2,0.4 2.7,1.1 0.7,0.7 1.1,1.7 1.1,2.7 0.1,1 -0.3,2 -1,2.7"
             style="fill:#00bce4;fill-opacity:1;fill-rule:nonzero;stroke:none"
             id="path3512"
             inkscape:connector-curvature="0" /></g><g
           id="g3514"
           transform="translate(50.9,232.2)"><path
             d="m 0,0 c 0.5,0 0.9,-0.1 1.3,-0.2 l 0,3 c 0,0.3 0.2,0.5 0.5,0.5 0.3,0 0.5,-0.2 0.5,-0.5 l 0,-3.5 c 0.1,0 0.2,-0.1 0.2,-0.1 0.1,0 0.1,-0.1 0.2,-0.1 0.5,-0.2 0.9,-0.6 1.3,-0.9 l 0,4.6 c 0,2 -2.5,3.3 -4.4,1.1 l 0,-3.8 c 0.2,0 0.3,0 0.4,-0.1"
             style="fill:#00bce4;fill-opacity:1;fill-rule:nonzero;stroke:none"
             id="path3516"
             inkscape:connector-curvature="0" /></g><g
           id="g3518"
           transform="translate(43,225.8)"><path
             d="m 0,0 -10.3,0 0,-3.6 c 0,-0.3 -0.2,-0.5 -0.5,-0.5 -0.3,0 -0.5,0.2 -0.5,0.5 l 0,15.6 c 0,0.3 0.2,0.5 0.5,0.5 0.3,0 0.5,-0.2 0.5,-0.5 l 0,-8.9 11.2,0 c 0.3,0.6 0.8,1.2 1.4,1.7 l -10.9,0 0,7.2 c 0,1.2 -1,2.2 -2.2,2.2 -1.2,0 -2.2,-1 -2.2,-2.2 l 0,-15.5 c 0,-2 2.5,-3.3 4.4,-1.1 l 0,2.9 8.6,0 c -0.1,0.6 -0.1,1.1 0,1.7"
             style="fill:#00bce4;fill-opacity:1;fill-rule:nonzero;stroke:none"
             id="path3520"
             inkscape:connector-curvature="0" /></g><g
           id="g3522"
           transform="translate(35.6,233.2)"><path
             d="m 0,0 c 0.9,0 1.6,-0.2 2,-0.6 0.4,-0.4 0.8,-1 0.9,-1.7 l 0.1,-0.4 -0.4,0 -3.3,0 -0.2,0 c -0.1,0 -0.2,0.1 -0.2,0.2 l 0,0.2 0,1.9 0,0.3 0.3,0 C -0.6,0 -0.3,0 0,0 m 0,1.3 c -0.3,0 -0.7,0 -1,-0.1 L -2.4,1 l 0,-1.4 0,-1.9 0,-1.6 1.6,0 3.3,0 1.9,0 L 4,-2 C 3.8,-1 3.4,-0.2 2.7,0.4 2.1,1 1.2,1.3 0,1.3"
             style="fill:#00bce4;fill-opacity:1;fill-rule:nonzero;stroke:none"
             id="path3524"
             inkscape:connector-curvature="0" /></g><g
           id="g3526"
           transform="translate(50,230.1)"><path
             d="M 0,0 C 1.4,0 2.6,-0.6 3.5,-1.5 4.4,-2.4 4.9,-3.7 4.9,-5.1 4.9,-6.5 4.3,-7.8 3.5,-8.7 2.6,-9.5 1.4,-10.1 0,-10.1 c -1.4,0 -2.6,0.6 -3.5,1.5 -0.9,0.9 -1.4,2.2 -1.4,3.6 0,1.4 0.6,2.7 1.4,3.6 1,0.8 2.2,1.4 3.5,1.4 m -0.5,-2.6 0,0 0,-1.9 -1.8,0 c -0.3,0 -0.5,-0.3 -0.5,-0.6 0,-0.3 0.2,-0.6 0.5,-0.6 l 1.8,0 0,-1.9 c 0,-0.3 0.2,-0.6 0.5,-0.6 0.3,0 0.6,0.3 0.6,0.6 l 0,1.9 1.8,0 c 0.3,0 0.5,0.3 0.5,0.6 0,0.3 -0.2,0.6 -0.5,0.6 l -1.8,0 0,1.9 C 0.6,-2.3 0.4,-2 0,-2 -0.3,-2.1 -0.5,-2.3 -0.5,-2.6 m 3.3,0.3 0,0 c -0.7,0.7 -1.7,1.2 -2.8,1.2 -1.1,0 -2,-0.4 -2.7,-1.1 -0.7,-0.7 -1.1,-1.7 -1.1,-2.8 0,-1.1 0.4,-2.1 1.1,-2.8 C -2,-8.5 -1,-9 0,-9 c 1.1,0 2,0.4 2.7,1.1 0.7,0.7 1.1,1.7 1.1,2.8 0.1,1.1 -0.3,2.1 -1,2.8"
             style="fill:#00bce4;fill-opacity:1;fill-rule:nonzero;stroke:none"
             id="path3528"
             inkscape:connector-curvature="0" /></g><g
           id="g3530"
           transform="translate(11.075,208.05)"><path
             d="m 0,0 c -2.5,2.6 -6.7,2.6 -9.2,0 -2.5,-2.6 -2.5,-6.8 0,-9.4 l 4.6,-4.7 4.6,4.7 c 2.5,2.6 2.5,6.8 0,9.4 m -3.8,-8.4 c 0,-0.6 -0.5,-1 -1.1,-1 -0.6,0 -1.1,0.4 -1.1,1 0,0.6 0.5,1 1.1,1 0.6,0 1.1,-0.4 1.1,-1 m 2.1,5 c 0,-1.5 -1.1,-2.2 -2.4,-2.4 l 0,-0.2 c 0,-0.3 -0.3,-0.6 -0.7,-0.6 l -0.1,0 c -0.4,0 -0.6,0.3 -0.7,0.6 l -0.1,0.8 c -0.1,0.4 0.2,0.7 0.6,0.7 1.1,0.1 1.6,0.5 1.6,1.1 0,0.5 -0.4,0.9 -1.1,0.9 -0.5,0 -1,-0.2 -1.4,-0.5 -0.1,-0.1 -0.3,-0.2 -0.6,-0.2 -0.5,0 -0.9,0.4 -0.9,0.8 0,0.2 0.1,0.5 0.3,0.7 0.7,0.5 1.5,0.9 2.6,0.9 1.7,0 2.9,-0.9 2.9,-2.6"
             style="fill:#666666;fill-opacity:1;fill-rule:nonzero;stroke:none"
             id="path3532"
             inkscape:connector-curvature="0" /></g><g
           id="g3534"
           transform="translate(41.075,208.05)"><path
             d="m 0,0 c -2.5,2.6 -6.7,2.6 -9.2,0 -2.5,-2.6 -2.5,-6.8 0,-9.4 l 4.6,-4.7 4.6,4.7 c 2.5,2.6 2.5,6.8 0,9.4 m -3.8,-8.4 c 0,-0.6 -0.5,-1 -1.1,-1 -0.6,0 -1.1,0.4 -1.1,1 0,0.6 0.5,1 1.1,1 0.6,0 1.1,-0.4 1.1,-1 m 2.1,5 c 0,-1.5 -1.1,-2.2 -2.4,-2.4 l 0,-0.2 c 0,-0.3 -0.3,-0.6 -0.7,-0.6 l -0.1,0 c -0.4,0 -0.6,0.3 -0.7,0.6 l -0.1,0.8 c -0.1,0.4 0.2,0.7 0.6,0.7 1.1,0.1 1.6,0.5 1.6,1.1 0,0.5 -0.4,0.9 -1.1,0.9 -0.5,0 -1,-0.2 -1.4,-0.5 -0.1,-0.1 -0.3,-0.2 -0.6,-0.2 -0.5,0 -0.9,0.4 -0.9,0.8 0,0.2 0.1,0.5 0.3,0.7 0.7,0.5 1.5,0.9 2.6,0.9 1.7,0 2.9,-0.9 2.9,-2.6"
             style="fill:#ffffff;fill-opacity:1;fill-rule:nonzero;stroke:none"
             id="path3536"
             inkscape:connector-curvature="0" /></g><g
           id="g3538"
           transform="translate(91.9,210)"><path
             d="m 0,0 8.2,0 c 1,0 1.9,-0.8 1.9,-1.9 l 0,-8.2 c 0,-1 -0.8,-1.9 -1.9,-1.9 L 0,-12 c -1,0 -1.9,0.8 -1.9,1.9 l 0,8.2 C -1.9,-0.8 -1.1,0 0,0"
             style="fill:#333333;fill-opacity:1;fill-rule:nonzero;stroke:none"
             id="path3540"
             inkscape:connector-curvature="0" /></g><path
           d="m 99.3,205 -6.7,0 0,-1.9 6.7,0 0,1.9 z"
           style="fill:#ffffff;fill-opacity:1;fill-rule:nonzero;stroke:none"
           id="path3542"
           inkscape:connector-curvature="0" /><g
           id="g3544"
           transform="translate(61.9,210)"><path
             d="m 0,0 8.2,0 c 1,0 1.9,-0.8 1.9,-1.9 l 0,-8.2 c 0,-1 -0.8,-1.9 -1.9,-1.9 L 0,-12 c -1,0 -1.9,0.8 -1.9,1.9 l 0,8.2 C -1.9,-0.8 -1.1,0 0,0"
             style="fill:#333333;fill-opacity:1;fill-rule:nonzero;stroke:none"
             id="path3546"
             inkscape:connector-curvature="0" /></g><path
           d="m 69.3,205 -6.7,0 0,-1.9 6.7,0 0,1.9 z"
           style="fill:#ffffff;fill-opacity:1;fill-rule:nonzero;stroke:none"
           id="path3548"
           inkscape:connector-curvature="0" /><path
           d="m 66.9,207.3 -1.9,0 0,-6.7 1.9,0 0,6.7 z"
           style="fill:#ffffff;fill-opacity:1;fill-rule:nonzero;stroke:none"
           id="path3550"
           inkscape:connector-curvature="0" /><g
           id="g3552"
           transform="translate(121.9,210)"><path
             d="m 0,0 8.2,0 c 1,0 1.9,-0.8 1.9,-1.9 l 0,-8.2 c 0,-1 -0.8,-1.9 -1.9,-1.9 L 0,-12 c -1,0 -1.9,0.8 -1.9,1.9 l 0,8.2 C -1.9,-0.8 -1.1,0 0,0"
             style="fill:#ffffff;fill-opacity:1;fill-rule:nonzero;stroke:none"
             id="path3554"
             inkscape:connector-curvature="0" /></g><path
           d="m 129.3,205 -6.7,0 0,-1.9 6.7,0 0,1.9 z"
           style="fill:#00bce4;fill-opacity:1;fill-rule:nonzero;stroke:none"
           id="path3556"
           inkscape:connector-curvature="0" /><path
           d="m 126.9,207.3 -1.9,0 0,-6.7 1.9,0 0,6.7 z"
           style="fill:#00bce4;fill-opacity:1;fill-rule:nonzero;stroke:none"
           id="path3558"
           inkscape:connector-curvature="0" /><g
           id="g3560"
           transform="translate(151.9,210)"><path
             d="m 0,0 8.2,0 c 1,0 1.9,-0.8 1.9,-1.9 l 0,-8.2 c 0,-1 -0.8,-1.9 -1.9,-1.9 L 0,-12 c -1,0 -1.9,0.8 -1.9,1.9 l 0,8.2 C -1.9,-0.8 -1.1,0 0,0"
             style="fill:#ffffff;fill-opacity:1;fill-rule:nonzero;stroke:none"
             id="path3562"
             inkscape:connector-curvature="0" /></g><path
           d="m 159.3,205 -6.7,0 0,-1.9 6.7,0 0,1.9 z"
           style="fill:#00bce4;fill-opacity:1;fill-rule:nonzero;stroke:none"
           id="path3564"
           inkscape:connector-curvature="0" /><g
           id="g3566"
           transform="translate(183,210)"><path
             d="m 0,0 16,0 c 1.7,0 3,-1.3 3,-3 l 0,-16 c 0,-1.7 -1.3,-3 -3,-3 l -16,0 c -1.7,0 -3,1.3 -3,3 l 0,16 c 0,1.7 1.3,3 3,3"
             style="fill:#a2a2a2;fill-opacity:1;fill-rule:nonzero;stroke:none"
             id="path3568"
             inkscape:connector-curvature="0" /></g><g
           id="g3570"
           transform="translate(196.6,202.1)"><path
             d="M 0,0 -2.5,2.5 -11.2,-6.2 -8.7,-8.7 0,0 Z"
             style="fill:#ffffff;fill-opacity:1;fill-rule:nonzero;stroke:none"
             id="path3572"
             inkscape:connector-curvature="0" /></g><g
           id="g3574"
           transform="translate(187.9,204.6)"><path
             d="M 0,0 -2.5,-2.5 6.2,-11.2 8.7,-8.7 0,0 Z"
             style="fill:#ffffff;fill-opacity:1;fill-rule:nonzero;stroke:none"
             id="path3576"
             inkscape:connector-curvature="0" /></g><g
           id="g3578"
           transform="translate(213,210)"><path
             d="m 0,0 16,0 c 1.7,0 3,-1.3 3,-3 l 0,-16 c 0,-1.7 -1.3,-3 -3,-3 l -16,0 c -1.7,0 -3,1.3 -3,3 l 0,16 c 0,1.7 1.3,3 3,3"
             style="fill:#cccccc;fill-opacity:1;fill-rule:nonzero;stroke:none"
             id="path3580"
             inkscape:connector-curvature="0" /></g><g
           id="g3582"
           transform="translate(226.6,202.1)"><path
             d="M 0,0 -2.5,2.5 -11.2,-6.2 -8.7,-8.7 0,0 Z"
             style="fill:#ffffff;fill-opacity:1;fill-rule:nonzero;stroke:none"
             id="path3584"
             inkscape:connector-curvature="0" /></g><g
           id="g3586"
           transform="translate(217.9,204.6)"><path
             d="M 0,0 -2.5,-2.5 6.2,-11.2 8.7,-8.7 0,0 Z"
             style="fill:#ffffff;fill-opacity:1;fill-rule:nonzero;stroke:none"
             id="path3588"
             inkscape:connector-curvature="0" /></g><g
           id="g3590"
           transform="translate(103.5857,229.1)"><path
             d="M 0,0 -3.7,0 C -4,1.7 -5.4,3 -7.2,3 -9,3 -10.4,1.7 -10.7,0 l -1.2,0 c 0,1.4 0.3,2.4 1,3.2 1.3,1.5 3.5,1.5 3.5,1.5 l 8.5,0 C 1.4,5.1 1.7,5.5 2,5.8 2.2,6 2.3,6.1 2.5,6.2 l -2.7,0 0,3.1 2.6,0 c 1.7,0 2.9,-0.7 3.7,-1.6 0.3,0 0.6,0.1 0.9,0.1 l 0.1,0 c 0.3,0 0.7,0 1,-0.1 -1,1.6 -2.9,3.2 -5.7,3.2 l -4.8,0 -0.2,0 c -3,-0.7 -4.8,-3.6 -5.4,-4.7 -0.9,-0.1 -2.8,-0.5 -4.2,-2 -1.1,-1.3 -1.6,-3 -1.3,-5.1 0,-0.4 0.4,-0.7 0.8,-0.7 l 2.1,0 c 0.5,-1.5 1.8,-2.5 3.4,-2.5 1.6,0 2.9,1 3.4,2.5 l 4.2,0 C 0.2,-1 0.1,-0.5 0,0 m -2.3,9.4 1.3,0 0,-3.1 -5.1,0 c 0.7,1.1 2,2.7 3.8,3.1 m -3,-10.1 c -0.1,-1 -0.9,-1.7 -2,-1.7 -1,0 -1.9,0.8 -2,1.7 l 0,0.1 c 0,1.1 0.9,2 2,2 1.1,0 2,-0.9 2,-1.9 l 0,-0.2 z"
             style="fill:#00bce4;fill-opacity:1;fill-rule:nonzero;stroke:none"
             id="path3592"
             inkscape:connector-curvature="0" /></g><g
           id="g3594"
           transform="translate(110.0857,235.2)"><path
             d="M 0,0 C 1.4,0 2.6,-0.6 3.5,-1.5 4.4,-2.4 4.9,-3.7 4.9,-5.1 4.9,-6.5 4.3,-7.8 3.5,-8.7 2.6,-9.6 1.4,-10.2 0,-10.2 c -1.4,0 -2.6,0.6 -3.5,1.5 -0.9,0.9 -1.4,2.2 -1.4,3.6 0,1.4 0.6,2.7 1.4,3.6 1,0.9 2.2,1.5 3.5,1.5 m -0.5,-2.6 0,0 0,-1.9 -1.8,0 c -0.3,0 -0.5,-0.3 -0.5,-0.6 0,-0.3 0.2,-0.6 0.5,-0.6 l 1.8,0 0,-1.9 c 0,-0.3 0.2,-0.6 0.5,-0.6 0.3,0 0.6,0.3 0.6,0.6 l 0,1.9 1.8,0 c 0.3,0 0.5,0.3 0.5,0.6 0,0.3 -0.2,0.6 -0.5,0.6 l -1.8,0 0,1.9 C 0.6,-2.3 0.4,-2 0,-2 -0.3,-2.1 -0.5,-2.3 -0.5,-2.6 m 3.3,0.3 0,0 c -0.7,0.7 -1.7,1.1 -2.7,1.1 -1.1,0 -2,-0.4 -2.7,-1.1 -0.7,-0.7 -1.1,-1.7 -1.1,-2.8 0,-1.1 0.4,-2.1 1.1,-2.8 0.7,-0.7 1.7,-1.2 2.7,-1.2 1.1,0 2,0.4 2.7,1.1 0.7,0.7 1.1,1.7 1.1,2.8 0,1.2 -0.4,2.2 -1.1,2.9"
             style="fill:#00bce4;fill-opacity:1;fill-rule:nonzero;stroke:none"
             id="path3596"
             inkscape:connector-curvature="0" /></g><g
           id="g3598"
           transform="translate(271.1,268.0002)"><path
             d="m 0,0 0,0 3.5,0 -3.6,-3.6 c -0.4,-0.4 -0.4,-1 0,-1.4 0.4,-0.4 1,-0.4 1.4,0 l 3.6,3.6 0,-3.6 c 0,-0.6 0.5,-1 1,-1 0.6,0 1,0.5 1,1 l 0,6 c 0,0.6 -0.5,1 -1,1 l -6,0 C -0.7,2 -1.1,1.5 -1.1,1 -1,0.4 -0.5,0 0,0"
             style="fill:#00b26b;fill-opacity:1;fill-rule:nonzero;stroke:none"
             id="path3600"
             inkscape:connector-curvature="0" /></g><g
           id="g3602"
           transform="translate(246.9,264.0002)"><path
             d="m 0,0 0,0 -3.5,0 3.6,3.6 c 0.4,0.4 0.4,1 0,1.4 -0.4,0.4 -1,0.4 -1.4,0 l -3.6,-3.6 0,3.6 c 0,0.6 -0.5,1 -1,1 -0.6,0 -1,-0.5 -1,-1 l 0,-6 c 0,-0.6 0.5,-1 1,-1 l 6,0 c 0.6,0 1,0.5 1,1 C 1,-0.4 0.5,0 0,0"
             style="fill:#e71939;fill-opacity:1;fill-rule:nonzero;stroke:none"
             id="path3604"
             inkscape:connector-curvature="0" /></g><g
           id="g3606"
           transform="translate(71.9351,229.9)"><path
             d="m 0,0 0,0 0,-1.8 -1.8,0 c -0.3,0 -0.5,-0.2 -0.5,-0.6 0,-0.3 0.2,-0.6 0.5,-0.6 L 0,-3 0,-4.8 c 0,-0.3 0.2,-0.6 0.5,-0.6 0.3,0 0.6,0.2 0.6,0.6 l 0,1.9 1.8,0 c 0.3,0 0.5,0.2 0.5,0.6 0,0.3 -0.2,0.6 -0.5,0.6 l -1.8,0 0,1.8 C 1.1,0.4 0.9,0.6 0.5,0.6 0.3,0.5 0,0.3 0,0"
             style="fill:#00bce4;fill-opacity:1;fill-rule:nonzero;stroke:none"
             id="path3608"
             inkscape:connector-curvature="0" /></g><g
           id="g3610"
           transform="translate(83.9351,224)"><path
             d="m 0,0 c 0.2,0 0.3,-0.1 0.3,-0.3 l 0,-7.5 C 0.3,-8 0.2,-8.1 0,-8.1 c -0.2,0 -0.3,0.1 -0.3,0.3 l 0,0.8 0,0.8 -0.8,0 -7.9,0 -0.8,0 0,-0.8 0,-0.9 c 0,-0.2 -0.1,-0.3 -0.3,-0.3 -0.2,0 -0.3,0.1 -0.3,0.3 l 0,6.2 c 0,0.2 0.1,0.3 0.3,0.3 0.2,0 0.3,-0.1 0.3,-0.3 l 0,-2.2 0,-0.8 0.8,0 7.9,0 0.8,0 0,0.8 0,3.5 C -0.3,-0.2 -0.2,0 0,0 m 0,0.7 c -0.6,0 -1.1,-0.5 -1.1,-1.1 l 0,-3.5 -7.9,0 0,2.2 c 0,0.6 -0.5,1.1 -1.1,1.1 -0.6,0 -1.1,-0.5 -1.1,-1.1 l 0,-6.2 c 0,-0.6 0.5,-1.1 1.1,-1.1 0.6,0 1.1,0.5 1.1,1.1 l 0,0.9 7.9,0 0,-0.9 c 0,-0.6 0.5,-1.1 1.1,-1.1 0.6,0 1.1,0.5 1.1,1.1 l 0,7.5 C 1.1,0.3 0.6,0.7 0,0.7"
             style="fill:#00bce4;fill-opacity:1;fill-rule:nonzero;stroke:none"
             id="path3612"
             inkscape:connector-curvature="0" /></g><g
           id="g3614"
           transform="translate(82.4351,221.1)"><path
             d="m 0,0 0.4,0 0,-0.9 -1.6,0 c 0,0.2 0.1,0.5 0.4,0.7 C -0.6,-0.1 -0.2,0 0,0 M 0,0.8 C -0.6,0.8 -1.1,0.7 -1.4,0.4 -1.7,0.1 -1.9,-0.3 -2,-0.8 l -0.2,-0.9 1,0 1.6,0 0.8,0 0,0.8 0,0.9 0,0.7 -0.7,0.1 -0.5,0 z"
             style="fill:#00bce4;fill-opacity:1;fill-rule:nonzero;stroke:none"
             id="path3616"
             inkscape:connector-curvature="0" /></g><g
           id="g3618"
           transform="translate(70.4351,215)"><path
             d="m 0,0 -0.2,0 c -3,0.6 -5.7,2.2 -7.6,4.7 -2.1,2.7 -3,6 -2.5,9.3 0.1,0.5 0.5,0.9 1.1,0.9 0.5,-0.1 0.9,-0.6 0.9,-1.1 C -8.6,11 -7.9,8.2 -6.2,5.9 -4.6,3.8 -2.3,2.4 0.2,2 0.7,1.9 1.1,1.4 1,0.8 0.9,0.3 0.5,0 0,0"
             style="fill:#00bce4;fill-opacity:1;fill-rule:nonzero;stroke:none"
             id="path3620"
             inkscape:connector-curvature="0" /></g><g
           id="g3622"
           transform="translate(84.0351,226)"><path
             d="m 0,0 0,0 c -0.6,0 -1,0.5 -1,1 0.1,2.6 -0.7,5.1 -2.3,7.1 -1.8,2.2 -4.3,3.6 -7.1,3.9 -0.5,0.1 -0.9,0.5 -0.9,1.1 0.1,0.5 0.5,0.9 1.1,0.9 3.3,-0.4 6.3,-2 8.4,-4.6 C 0.1,7 1.1,4 1,1 1,0.4 0.5,0 0,0"
             style="fill:#00bce4;fill-opacity:1;fill-rule:nonzero;stroke:none"
             id="path3624"
             inkscape:connector-curvature="0" /></g><g
           id="g3626"
           transform="translate(63.4351,238.2)"><path
             d="m 0,0 4.7,-1.6 0.4,-0.1 0.3,0.2 1.7,1.1 c 0.1,0 0.1,0.1 0.2,0.1 0.2,0 0.4,-0.2 0.4,-0.4 C 7.8,-1 7.6,-1.1 7.5,-1.2 L 5.8,-2.3 5.6,-2.6 5.6,-3 5.1,-8.1 5,-8.2 4.6,-8.3 4,-4.9 3.8,-3.7 2.8,-4.4 1.5,-5.2 1.2,-5.4 1.2,-5.8 1.1,-7.4 0.5,-7.8 0.1,-6 0,-5.7 l -0.2,0.2 -1.5,1.2 0.6,0.4 1.5,-0.6 0.4,-0.1 0.3,0.2 1.3,0.9 1,0.7 -1,0.7 -2.8,1.8 L 0,0 m -0.1,0.8 c -0.1,0 -0.1,0 -0.2,-0.1 L -1.4,0 -1.5,-0.1 c -0.1,-0.2 -0.1,-0.4 0.1,-0.6 L 1.9,-3 0.6,-3.8 l -1.7,0.6 -0.1,0 c -0.1,0 -0.2,0 -0.2,-0.1 l -1.2,-0.8 -0.1,-0.1 c -0.1,-0.2 -0.1,-0.4 0.1,-0.6 l 2,-1.6 0.6,-2.3 c 0,-0.1 0,-0.1 0.1,-0.2 0.1,-0.1 0.2,-0.2 0.3,-0.2 0.1,0 0.2,0 0.2,0.1 l 1.2,0.8 C 1.9,-8.1 2,-8 2,-7.9 l 0.1,1.8 1.3,0.9 0.7,-3.9 c 0,-0.1 0,-0.1 0.1,-0.2 0.1,-0.1 0.2,-0.2 0.3,-0.2 0.1,0 0.2,0 0.2,0.1 l 1.1,0.7 C 5.9,-8.6 6,-8.5 6,-8.4 l 0.5,5.2 1.7,1.1 C 9.3,-1.4 8.6,0.2 7.5,0.2 7.3,0.2 7.1,0.1 6.8,0 l -1.7,-1.1 -5,1.9 -0.2,0 z"
             style="fill:#00bce4;fill-opacity:1;fill-rule:nonzero;stroke:none"
             id="path3628"
             inkscape:connector-curvature="0" /></g><g
           id="g3630"
           transform="translate(71.9351,289.9)"><path
             d="m 0,0 0,0 0,-1.8 -1.8,0 c -0.3,0 -0.5,-0.2 -0.5,-0.6 0,-0.3 0.2,-0.6 0.5,-0.6 L 0,-3 0,-4.8 c 0,-0.3 0.2,-0.6 0.5,-0.6 0.3,0 0.6,0.2 0.6,0.6 l 0,1.9 1.8,0 c 0.3,0 0.5,0.2 0.5,0.6 0,0.3 -0.2,0.6 -0.5,0.6 l -1.8,0 0,1.8 C 1.1,0.4 0.9,0.6 0.5,0.6 0.3,0.5 0,0.3 0,0"
             style="fill:#ffffff;fill-opacity:1;fill-rule:nonzero;stroke:none"
             id="path3632"
             inkscape:connector-curvature="0" /></g><g
           id="g3634"
           transform="translate(83.9351,284)"><path
             d="m 0,0 c 0.2,0 0.3,-0.1 0.3,-0.3 l 0,-7.5 C 0.3,-8 0.2,-8.1 0,-8.1 c -0.2,0 -0.3,0.1 -0.3,0.3 l 0,0.8 0,0.8 -0.8,0 -7.9,0 -0.8,0 0,-0.8 0,-0.9 c 0,-0.2 -0.1,-0.3 -0.3,-0.3 -0.2,0 -0.3,0.1 -0.3,0.3 l 0,6.2 c 0,0.2 0.1,0.3 0.3,0.3 0.2,0 0.3,-0.1 0.3,-0.3 l 0,-2.2 0,-0.8 0.8,0 7.9,0 0.8,0 0,0.8 0,3.5 C -0.3,-0.2 -0.2,0 0,0 m 0,0.7 c -0.6,0 -1.1,-0.5 -1.1,-1.1 l 0,-3.5 -7.9,0 0,2.2 c 0,0.6 -0.5,1.1 -1.1,1.1 -0.6,0 -1.1,-0.5 -1.1,-1.1 l 0,-6.2 c 0,-0.6 0.5,-1.1 1.1,-1.1 0.6,0 1.1,0.5 1.1,1.1 l 0,0.9 7.9,0 0,-0.9 c 0,-0.6 0.5,-1.1 1.1,-1.1 0.6,0 1.1,0.5 1.1,1.1 l 0,7.5 C 1.1,0.3 0.6,0.7 0,0.7"
             style="fill:#ffffff;fill-opacity:1;fill-rule:nonzero;stroke:none"
             id="path3636"
             inkscape:connector-curvature="0" /></g><g
           id="g3638"
           transform="translate(82.4351,281.1)"><path
             d="m 0,0 0.4,0 0,-0.9 -1.6,0 c 0,0.2 0.1,0.5 0.4,0.7 C -0.6,-0.1 -0.2,0 0,0 M 0,0.8 C -0.6,0.8 -1.1,0.7 -1.4,0.4 -1.7,0.1 -1.9,-0.3 -2,-0.8 l -0.2,-0.9 1,0 1.6,0 0.8,0 0,0.8 0,0.9 0,0.7 -0.7,0.1 -0.5,0 z"
             style="fill:#ffffff;fill-opacity:1;fill-rule:nonzero;stroke:none"
             id="path3640"
             inkscape:connector-curvature="0" /></g><g
           id="g3642"
           transform="translate(70.4351,275)"><path
             d="m 0,0 -0.2,0 c -3,0.6 -5.7,2.2 -7.6,4.7 -2.1,2.7 -3,6 -2.5,9.3 0.1,0.5 0.5,0.9 1.1,0.9 0.5,-0.1 0.9,-0.6 0.9,-1.1 C -8.6,11 -7.9,8.2 -6.2,5.9 -4.6,3.8 -2.3,2.4 0.2,2 0.7,1.9 1.1,1.4 1,0.8 0.9,0.3 0.5,0 0,0"
             style="fill:#ffffff;fill-opacity:1;fill-rule:nonzero;stroke:none"
             id="path3644"
             inkscape:connector-curvature="0" /></g><g
           id="g3646"
           transform="translate(84.0351,286)"><path
             d="m 0,0 0,0 c -0.6,0 -1,0.5 -1,1 0.1,2.6 -0.7,5.1 -2.3,7.1 -1.8,2.2 -4.3,3.6 -7.1,3.9 -0.5,0.1 -0.9,0.5 -0.9,1.1 0.1,0.5 0.5,0.9 1.1,0.9 3.3,-0.4 6.3,-2 8.4,-4.6 C 0.1,7 1.1,4 1,0.9 1,0.4 0.5,0 0,0"
             style="fill:#ffffff;fill-opacity:1;fill-rule:nonzero;stroke:none"
             id="path3648"
             inkscape:connector-curvature="0" /></g><g
           id="g3650"
           transform="translate(63.4351,298.2)"><path
             d="m 0,0 4.7,-1.6 0.4,-0.1 0.3,0.2 1.7,1.1 c 0.1,0 0.1,0.1 0.2,0.1 0.2,0 0.4,-0.2 0.4,-0.4 0.2,-0.4 0,-0.5 -0.1,-0.5 L 5.9,-2.3 5.6,-2.6 5.6,-3 5.1,-8.1 5,-8.2 4.6,-8.3 4,-4.9 3.8,-3.7 2.8,-4.4 1.5,-5.2 1.2,-5.4 1.2,-5.8 1.1,-7.4 0.5,-7.8 0.1,-6 0,-5.7 l -0.2,0.2 -1.5,1.2 0.6,0.4 1.5,-0.6 0.4,-0.1 0.3,0.2 1.3,0.9 1,0.7 -1,0.7 -2.8,1.8 L 0,0 m -0.1,0.8 c -0.1,0 -0.1,0 -0.2,-0.1 L -1.4,0 -1.5,-0.1 c -0.1,-0.2 -0.1,-0.4 0.1,-0.6 L 1.9,-3 0.6,-3.8 l -1.7,0.6 -0.1,0 c -0.1,0 -0.2,0 -0.2,-0.1 l -1.2,-0.8 -0.1,-0.1 c -0.1,-0.2 -0.1,-0.4 0.1,-0.6 l 2,-1.6 0.6,-2.3 c 0,-0.1 0,-0.1 0.1,-0.2 0.1,-0.1 0.2,-0.2 0.3,-0.2 0.1,0 0.2,0 0.2,0.1 l 1,1 c 0.1,0.1 0.2,0.2 0.2,0.3 l 0.1,1.8 1.3,0.9 0.7,-3.9 c 0,-0.1 0,-0.1 0.1,-0.2 0.1,-0.1 0.2,-0.2 0.3,-0.2 0.1,0 0.2,0 0.2,0.1 l 1.1,0.7 c 0.1,0.1 0.2,0.2 0.2,0.3 L 6.3,-3 8,-1.9 C 9.1,-1.2 8.4,0.4 7.3,0.4 7.1,0.4 6.9,0.3 6.6,0.2 l -1.7,-1.1 -4.8,1.7 -0.2,0 z"
             style="fill:#ffffff;fill-opacity:1;fill-rule:nonzero;stroke:none"
             id="path3652"
             inkscape:connector-curvature="0" /></g></g></g><g
       id="g3654"
       transform="matrix(0.79991155,0,0,0.79959109,0,0.12267301)"><g
         id="g3656"
         clip-path="url(#clipPath3658)"><g
           id="g3662"
           transform="translate(247.5,195.5)"><path
             d="m 0,0 c -3.86,0 -7,3.14 -7,7 0,3.86 3.14,7 7,7 C 3.86,14 7,10.86 7,7 7,3.14 3.86,0 0,0"
             style="fill:#ffffff;fill-opacity:1;fill-rule:nonzero;stroke:none"
             id="path3664"
             inkscape:connector-curvature="0" /></g><g
           id="g3666"
           transform="translate(247.5,209)"><path
             d="M 0,0 C 3.59,0 6.5,-2.91 6.5,-6.5 6.5,-10.09 3.59,-13 0,-13 c -3.59,0 -6.5,2.91 -6.5,6.5 0,3.59 2.91,6.5 6.5,6.5 m 0,1 c -4.136,0 -7.5,-3.364 -7.5,-7.5 0,-4.136 3.364,-7.5 7.5,-7.5 4.136,0 7.5,3.364 7.5,7.5 C 7.5,-2.364 4.136,1 0,1"
             style="fill:#9c9c9c;fill-opacity:1;fill-rule:nonzero;stroke:none"
             id="path3668"
             inkscape:connector-curvature="0" /></g><g
           id="g3670"
           transform="translate(251,202.5)"><path
             d="M 0,0 C 0,-1.933 -1.567,-3.5 -3.5,-3.5 -5.433,-3.5 -7,-1.933 -7,0 -7,1.933 -5.433,3.5 -3.5,3.5 -1.567,3.5 0,1.933 0,0"
             style="fill:#f58227;fill-opacity:1;fill-rule:nonzero;stroke:none"
             id="path3672"
             inkscape:connector-curvature="0" /></g></g></g><g
       id="g3674"
       transform="matrix(0.79991155,0,0,0.79959109,0,0.12267301)"><g
         id="g3676"
         clip-path="url(#clipPath3678)"><g
           id="g3682"
           transform="translate(277.5,195.5)"><path
             d="m 0,0 c -3.86,0 -7,3.14 -7,7 0,3.86 3.14,7 7,7 C 3.86,14 7,10.86 7,7 7,3.14 3.86,0 0,0"
             style="fill:#ffffff;fill-opacity:1;fill-rule:nonzero;stroke:none"
             id="path3684"
             inkscape:connector-curvature="0" /></g><g
           id="g3686"
           transform="translate(277.5,209)"><path
             d="M 0,0 C 3.59,0 6.5,-2.91 6.5,-6.5 6.5,-10.09 3.59,-13 0,-13 c -3.59,0 -6.5,2.91 -6.5,6.5 0,3.59 2.91,6.5 6.5,6.5 m 0,1 c -4.136,0 -7.5,-3.364 -7.5,-7.5 0,-4.136 3.364,-7.5 7.5,-7.5 4.136,0 7.5,3.364 7.5,7.5 C 7.5,-2.364 4.136,1 0,1"
             style="fill:#9c9c9c;fill-opacity:1;fill-rule:nonzero;stroke:none"
             id="path3688"
             inkscape:connector-curvature="0" /></g></g></g><g
       id="g3690"
       transform="matrix(0.79991155,0,0,0.79959109,0,0.12267301)"><g
         id="g3692"
         clip-path="url(#clipPath3694)"><g
           id="g3698"
           transform="translate(317.0387,268.1969)"><path
             d="m 0,0 -0.011,-0.013 -2.962,-2.96 -0.006,0 c -0.159,-0.158 -0.388,-0.248 -0.629,-0.221 l -9.871,1.155 -0.662,-0.661 7.013,-2.829 c 0.121,-0.035 0.224,-0.098 0.317,-0.191 0.301,-0.3 0.301,-0.786 0,-1.089 l -3.246,-3.241 0,0.003 c -0.17,-0.167 -0.405,-0.254 -0.656,-0.216 l -3.4,0.502 -0.859,-0.857 3.537,-1.742 -0.005,0 c 0.147,-0.074 0.278,-0.197 0.355,-0.358 l 1.639,-3.407 0.853,0.852 -0.503,3.353 c -0.043,0.248 0.022,0.507 0.213,0.699 l 3.247,3.241 c 0.072,0.071 0.159,0.128 0.257,0.169 0.394,0.155 0.842,-0.036 1.001,-0.429 l 2.847,-7.063 0.667,0.661 -1.153,9.823 c -0.039,0.238 0.033,0.489 0.218,0.672 l 2.974,2.973 C 1.94,-0.412 0.787,0.759 0.011,0.014 L 0,0 Z m -1.104,1.073 0,0 0.016,0.014 0.016,0.016 C 1.137,3.279 4.405,-0.12 2.263,-2.264 l -2.711,-2.71 1.153,-9.862 c 0.027,-0.243 -0.06,-0.473 -0.219,-0.631 l 0.006,0 -1.749,-1.748 c -0.307,-0.3 -0.787,-0.3 -1.094,0 -0.087,0.093 -0.152,0.202 -0.185,0.317 l -2.831,7.009 -2.154,-2.149 0.502,-3.393 c 0.039,-0.26 -0.065,-0.514 -0.24,-0.68 l -1.864,-1.86 c -0.301,-0.3 -0.787,-0.303 -1.088,0 -0.076,0.071 -0.131,0.156 -0.174,0.252 l -1.968,4.098 -4.258,2.099 c -0.377,0.189 -0.536,0.647 -0.35,1.027 0.038,0.084 0.098,0.161 0.164,0.221 l 1.875,1.87 c 0.175,0.177 0.42,0.251 0.656,0.216 l 3.394,-0.5 2.148,2.146 -7.073,2.851 c -0.393,0.161 -0.585,0.606 -0.426,0.999 0.043,0.101 0.098,0.186 0.174,0.257 l -0.005,0 1.744,1.744 c 0.186,0.186 0.437,0.257 0.672,0.219 l 9.833,-1.152 2.701,2.697 z"
             style="fill:#00bce4;fill-opacity:1;fill-rule:nonzero;stroke:none"
             id="path3700"
             inkscape:connector-curvature="0" /></g></g></g><g
       id="g3702"
       transform="matrix(0.79991155,0,0,0.79959109,0,0.12267301)"><g
         id="g3704"
         clip-path="url(#clipPath3706)"><g
           id="g3710"
           transform="translate(325.9091,180)"><path
             d="m 0,0 -21.818,0 c -2.26,0 -4.091,1.832 -4.091,4.091 l 0,21.818 c 0,2.259 1.831,4.091 4.091,4.091 L 0,30 c 2.259,0 4.091,-1.832 4.091,-4.091 l 0,-21.818 C 4.091,1.832 2.259,0 0,0"
             style="fill:#f58227;fill-opacity:1;fill-rule:nonzero;stroke:none"
             id="path3712"
             inkscape:connector-curvature="0" /></g><g
           id="g3714"
           transform="translate(307.5084,195)"><path
             d="m 0,0 12.27,10.904 0,-21.808 L 0,0 Z"
             style="fill:#ffffff;fill-opacity:1;fill-rule:nonzero;stroke:none"
             id="path3716"
             inkscape:connector-curvature="0" /></g><g
           id="g3718"
           transform="translate(334.0909,210)"><path
             d="m 0,0 21.818,0 c 2.26,0 4.091,-1.832 4.091,-4.091 l 0,-21.818 C 25.909,-28.168 24.078,-30 21.818,-30 L 0,-30 c -2.259,0 -4.091,1.832 -4.091,4.091 l 0,21.818 C -4.091,-1.832 -2.259,0 0,0"
             style="fill:#f58227;fill-opacity:1;fill-rule:nonzero;stroke:none"
             id="path3720"
             inkscape:connector-curvature="0" /></g><g
           id="g3722"
           transform="translate(352.4916,195)"><path
             d="m 0,0 -12.27,-10.904 0,21.808 L 0,0 Z"
             style="fill:#ffffff;fill-opacity:1;fill-rule:nonzero;stroke:none"
             id="path3724"
             inkscape:connector-curvature="0" /></g><g
           id="g3726"
           transform="translate(385.9091,180)"><path
             d="m 0,0 -21.818,0 c -2.26,0 -4.091,1.832 -4.091,4.091 l 0,21.818 c 0,2.259 1.831,4.091 4.091,4.091 L 0,30 c 2.259,0 4.091,-1.832 4.091,-4.091 l 0,-21.818 C 4.091,1.832 2.259,0 0,0"
             style="fill:#fba212;fill-opacity:1;fill-rule:nonzero;stroke:none"
             id="path3728"
             inkscape:connector-curvature="0" /></g><g
           id="g3730"
           transform="translate(367.5084,195)"><path
             d="m 0,0 12.27,10.904 0,-21.808 L 0,0 Z"
             style="fill:#ffffff;fill-opacity:1;fill-rule:nonzero;stroke:none"
             id="path3732"
             inkscape:connector-curvature="0" /></g><g
           id="g3734"
           transform="translate(394.0909,210)"><path
             d="m 0,0 21.818,0 c 2.26,0 4.091,-1.832 4.091,-4.091 l 0,-21.818 C 25.909,-28.168 24.078,-30 21.818,-30 L 0,-30 c -2.259,0 -4.091,1.832 -4.091,4.091 l 0,21.818 C -4.091,-1.832 -2.259,0 0,0"
             style="fill:#fba212;fill-opacity:1;fill-rule:nonzero;stroke:none"
             id="path3736"
             inkscape:connector-curvature="0" /></g><g
           id="g3738"
           transform="translate(412.4916,195)"><path
             d="m 0,0 -12.27,-10.904 0,21.808 L 0,0 Z"
             style="fill:#ffffff;fill-opacity:1;fill-rule:nonzero;stroke:none"
             id="path3740"
             inkscape:connector-curvature="0" /></g></g></g><g
       id="g3742"
       transform="matrix(0.79991155,0,0,0.79959109,0,0.12267301)"><g
         id="g3744"
         clip-path="url(#clipPath3746)"><g
           id="g3750"
           transform="translate(16,176.4702)"><path
             d="M 0,0 -3.529,3.529 -16,-8.94 -12.47,-12.47 0,0 Z"
             style="fill:#f58226;fill-opacity:1;fill-rule:nonzero;stroke:none"
             id="path3752"
             inkscape:connector-curvature="0" /></g><g
           id="g3754"
           transform="translate(3.53,180)"><path
             d="M 0,0 -3.529,-3.529 8.94,-15.999 12.47,-12.47 0,0 Z"
             style="fill:#f58226;fill-opacity:1;fill-rule:nonzero;stroke:none"
             id="path3756"
             inkscape:connector-curvature="0" /></g><g
           id="g3758"
           transform="translate(46,176.4702)"><path
             d="M 0,0 -3.529,3.529 -16,-8.94 -12.47,-12.47 0,0 Z"
             style="fill:#fba211;fill-opacity:1;fill-rule:nonzero;stroke:none"
             id="path3760"
             inkscape:connector-curvature="0" /></g><g
           id="g3762"
           transform="translate(33.53,180)"><path
             d="M 0,0 -3.529,-3.529 8.94,-15.999 12.47,-12.47 0,0 Z"
             style="fill:#fba211;fill-opacity:1;fill-rule:nonzero;stroke:none"
             id="path3764"
             inkscape:connector-curvature="0" /></g><path
           d="m 66,177.848 -6,0 0,-1.699 6,0 0,1.699 z"
           style="fill:#f58226;fill-opacity:1;fill-rule:nonzero;stroke:none"
           id="path3766"
           inkscape:connector-curvature="0" /><path
           d="m 63.848,180 -1.699,0 0,-6 1.699,0 0,6 z"
           style="fill:#f58226;fill-opacity:1;fill-rule:nonzero;stroke:none"
           id="path3768"
           inkscape:connector-curvature="0" /><path
           d="m 96,177.849 -6,0 0,-1.699 6,0 0,1.699 z"
           style="fill:#fba211;fill-opacity:1;fill-rule:nonzero;stroke:none"
           id="path3770"
           inkscape:connector-curvature="0" /><path
           d="m 93.849,180 -1.699,0 0,-6 1.699,0 0,6 z"
           style="fill:#fba211;fill-opacity:1;fill-rule:nonzero;stroke:none"
           id="path3772"
           inkscape:connector-curvature="0" /></g></g><g
       id="g3774"
       transform="matrix(0.79991155,0,0,0.79959109,0,0.12267301)"><g
         id="g3776"
         clip-path="url(#clipPath3778)"><g
           id="g3782"
           transform="translate(441.152,108.0603)"><path
             d="m 0,0 c 0,-0.635 -0.51,-1.159 -1.145,-1.159 -0.649,0 -1.173,0.524 -1.173,1.159 l 0,79.13 -1.836,-1.836 c -0.455,-0.469 -1.201,-0.469 -1.657,0 -0.455,0.441 -0.455,1.188 0,1.643 l 3.838,3.837 c 0.455,0.455 1.201,0.455 1.642,0 l 3.838,-3.837 c 0.455,-0.455 0.455,-1.202 0,-1.643 -0.443,-0.469 -1.188,-0.469 -1.657,0 L 0.014,79.13 0,0 Z"
             style="fill:#cccccc;fill-opacity:1;fill-rule:nonzero;stroke:none"
             id="path3784"
             inkscape:connector-curvature="0" /></g><g
           id="g3786"
           transform="translate(436.9199,199.5258)"><path
             d="M 0,0 C 0,1.657 1.343,3 3,3 4.657,3 6,1.657 6,0 6,-1.657 4.657,-3 3,-3 1.343,-3 0,-1.657 0,0"
             style="fill:#cccccc;fill-opacity:1;fill-rule:nonzero;stroke:none"
             id="path3788"
             inkscape:connector-curvature="0" /></g><g
           id="g3790"
           transform="translate(441.152,208.3688)"><path
             d="m 0,0 c 0,-0.635 -0.51,-1.159 -1.145,-1.159 -0.649,0 -1.173,0.524 -1.173,1.159 l 0,87.646 -1.836,-1.836 c -0.455,-0.469 -1.201,-0.469 -1.657,0 -0.455,0.441 -0.455,1.187 0,1.642 l 3.838,3.838 c 0.455,0.455 1.201,0.455 1.642,0 l 3.838,-3.838 c 0.455,-0.455 0.455,-1.201 0,-1.642 -0.443,-0.469 -1.188,-0.469 -1.657,0 L 0.014,87.646 0,0 Z"
             style="fill:#cccccc;fill-opacity:1;fill-rule:nonzero;stroke:none"
             id="path3792"
             inkscape:connector-curvature="0" /></g><g
           id="g3794"
           transform="translate(423.8481,298.841)"><path
             d="M 0,0 C 0,0.635 0.51,1.159 1.145,1.159 1.794,1.159 2.318,0.635 2.318,0 l 0,-187.862 1.836,1.836 c 0.455,0.469 1.201,0.469 1.657,0 0.455,-0.441 0.455,-1.187 0,-1.643 l -3.838,-3.837 c -0.455,-0.455 -1.201,-0.455 -1.642,0 l -3.838,3.837 c -0.455,0.456 -0.455,1.202 0,1.643 0.443,0.469 1.188,0.469 1.657,0 l 1.836,-1.836 L 0,0 Z"
             style="fill:#cccccc;fill-opacity:1;fill-rule:nonzero;stroke:none"
             id="path3796"
             inkscape:connector-curvature="0" /></g><g
           id="g3798"
           transform="translate(470.6504,208.4386)"><path
             d="m 0,0 c 0,-0.635 -0.51,-1.159 -1.145,-1.159 -0.649,0 -1.173,0.524 -1.173,1.159 l 0,60.816 -1.836,-1.836 c -0.455,-0.469 -1.201,-0.469 -1.657,0 -0.455,0.441 -0.455,1.188 0,1.643 l 3.838,3.837 c 0.455,0.455 1.201,0.455 1.642,0 l 3.838,-3.837 c 0.455,-0.455 0.455,-1.202 0,-1.643 -0.443,-0.469 -1.188,-0.469 -1.657,0 L 0.014,60.816 0,0 Z"
             style="fill:#cccccc;fill-opacity:1;fill-rule:nonzero;stroke:none"
             id="path3800"
             inkscape:connector-curvature="0" /></g><g
           id="g3802"
           transform="translate(466.4184,281.5903)"><path
             d="M 0,0 C 0,1.657 1.343,3 3,3 4.657,3 6,1.657 6,0 6,-1.657 4.657,-3 3,-3 1.343,-3 0,-1.657 0,0"
             style="fill:#cccccc;fill-opacity:1;fill-rule:nonzero;stroke:none"
             id="path3804"
             inkscape:connector-curvature="0" /></g><g
           id="g3806"
           transform="translate(470.6504,290.4333)"><path
             d="m 0,0 c 0,-0.635 -0.51,-1.159 -1.145,-1.159 -0.649,0 -1.173,0.524 -1.173,1.159 l 0,5.582 -1.836,-1.836 c -0.455,-0.47 -1.201,-0.47 -1.657,0 -0.455,0.441 -0.455,1.187 0,1.642 l 3.838,3.837 c 0.455,0.456 1.201,0.456 1.642,0 L 3.507,5.388 c 0.455,-0.455 0.455,-1.201 0,-1.642 -0.443,-0.47 -1.188,-0.47 -1.657,0 L 0.014,5.582 0,0 Z"
             style="fill:#cccccc;fill-opacity:1;fill-rule:nonzero;stroke:none"
             id="path3808"
             inkscape:connector-curvature="0" /></g><g
           id="g3810"
           transform="translate(453.8481,298.7948)"><path
             d="M 0,0 C 0,0.635 0.51,1.159 1.145,1.159 1.794,1.159 2.318,0.635 2.318,0 l 0,-87.484 1.836,1.836 c 0.455,0.469 1.201,0.469 1.657,0 0.455,-0.441 0.455,-1.187 0,-1.642 l -3.838,-3.838 c -0.455,-0.455 -1.201,-0.455 -1.642,0 l -3.838,3.838 c -0.455,0.455 -0.455,1.201 0,1.642 0.443,0.469 1.188,0.469 1.657,0 L -0.014,-87.484 0,0 Z"
             style="fill:#cccccc;fill-opacity:1;fill-rule:nonzero;stroke:none"
             id="path3812"
             inkscape:connector-curvature="0" /></g><g
           id="g3814"
           transform="translate(483.8481,298.841)"><path
             d="M 0,0 C 0,0.635 0.51,1.159 1.145,1.159 1.794,1.159 2.318,0.635 2.318,0 l 0,-87.131 1.836,1.836 c 0.455,0.469 1.201,0.469 1.657,0 0.455,-0.441 0.455,-1.187 0,-1.642 l -3.838,-3.838 c -0.455,-0.455 -1.201,-0.455 -1.642,0 l -3.838,3.838 c -0.455,0.455 -0.455,1.201 0,1.642 0.443,0.469 1.188,0.469 1.657,0 L -0.014,-87.131 0,0 Z"
             style="fill:#cccccc;fill-opacity:1;fill-rule:nonzero;stroke:none"
             id="path3816"
             inkscape:connector-curvature="0" /></g><g
           id="g3818"
           transform="translate(488.0801,199.3749)"><path
             d="m 0,0 c 0,-1.657 -1.343,-3 -3,-3 -1.657,0 -3,1.343 -3,3 0,1.657 1.343,3 3,3 1.657,0 3,-1.343 3,-3"
             style="fill:#cccccc;fill-opacity:1;fill-rule:nonzero;stroke:none"
             id="path3820"
             inkscape:connector-curvature="0" /></g><g
           id="g3822"
           transform="translate(483.8481,190.532)"><path
             d="M 0,0 C 0,0.635 0.51,1.159 1.145,1.159 1.794,1.159 2.318,0.635 2.318,0 l 0,-79.646 1.836,1.837 c 0.455,0.469 1.201,0.469 1.657,0 0.455,-0.441 0.455,-1.188 0,-1.643 l -3.838,-3.837 c -0.455,-0.455 -1.201,-0.455 -1.642,0 l -3.838,3.837 c -0.455,0.455 -0.455,1.202 0,1.643 0.443,0.469 1.188,0.469 1.657,0 L -0.014,-79.646 0,0 Z"
             style="fill:#cccccc;fill-opacity:1;fill-rule:nonzero;stroke:none"
             id="path3824"
             inkscape:connector-curvature="0" /></g><g
           id="g3826"
           transform="translate(501.1519,108.0603)"><path
             d="m 0,0 c 0,-0.635 -0.51,-1.159 -1.145,-1.159 -0.649,0 -1.173,0.524 -1.173,1.159 l 0,187.862 -1.836,-1.836 c -0.455,-0.469 -1.201,-0.469 -1.657,0 -0.455,0.441 -0.455,1.187 0,1.643 l 3.838,3.837 c 0.455,0.455 1.201,0.455 1.642,0 l 3.838,-3.837 c 0.455,-0.456 0.455,-1.202 0,-1.643 -0.443,-0.469 -1.188,-0.469 -1.657,0 L 0.014,187.862 0,0 Z"
             style="fill:#cccccc;fill-opacity:1;fill-rule:nonzero;stroke:none"
             id="path3828"
             inkscape:connector-curvature="0" /></g><g
           id="g3830"
           transform="translate(513.848,298.8061)"><path
             d="M 0,0 C 0,0.635 0.51,1.159 1.145,1.159 1.794,1.159 2.318,0.635 2.318,0 l 0,-60.816 1.836,1.836 c 0.455,0.469 1.201,0.469 1.657,0 0.455,-0.441 0.455,-1.188 0,-1.643 L 1.973,-64.46 c -0.455,-0.455 -1.201,-0.455 -1.642,0 l -3.838,3.837 c -0.455,0.455 -0.455,1.202 0,1.643 0.443,0.469 1.188,0.469 1.657,0 L -0.014,-60.816 0,0 Z"
             style="fill:#cccccc;fill-opacity:1;fill-rule:nonzero;stroke:none"
             id="path3832"
             inkscape:connector-curvature="0" /></g><g
           id="g3834"
           transform="translate(518.08,225.6544)"><path
             d="m 0,0 c 0,-1.657 -1.343,-3 -3,-3 -1.657,0 -3,1.343 -3,3 0,1.657 1.343,3 3,3 1.657,0 3,-1.343 3,-3"
             style="fill:#cccccc;fill-opacity:1;fill-rule:nonzero;stroke:none"
             id="path3836"
             inkscape:connector-curvature="0" /></g><g
           id="g3838"
           transform="translate(513.848,216.8114)"><path
             d="M 0,0 C 0,0.635 0.51,1.159 1.145,1.159 1.794,1.159 2.318,0.635 2.318,0 l 0,-5.582 1.836,1.836 c 0.455,0.47 1.201,0.47 1.657,0 0.455,-0.441 0.455,-1.187 0,-1.642 L 1.973,-9.225 c -0.455,-0.456 -1.201,-0.456 -1.642,0 l -3.838,3.837 c -0.455,0.455 -0.455,1.201 0,1.642 0.443,0.47 1.188,0.47 1.657,0 L -0.014,-5.582 0,0 Z"
             style="fill:#cccccc;fill-opacity:1;fill-rule:nonzero;stroke:none"
             id="path3840"
             inkscape:connector-curvature="0" /></g><g
           id="g3842"
           transform="translate(531.1519,208.4037)"><path
             d="m 0,0 c 0,-0.635 -0.51,-1.159 -1.145,-1.159 -0.649,0 -1.173,0.524 -1.173,1.159 l 0,87.484 -1.836,-1.836 c -0.455,-0.469 -1.201,-0.469 -1.657,0 -0.455,0.441 -0.455,1.187 0,1.642 l 3.838,3.838 c 0.455,0.455 1.201,0.455 1.642,0 L 3.507,87.29 c 0.455,-0.455 0.455,-1.201 0,-1.642 -0.443,-0.469 -1.188,-0.469 -1.657,0 L 0.014,87.484 0,0 Z"
             style="fill:#cccccc;fill-opacity:1;fill-rule:nonzero;stroke:none"
             id="path3844"
             inkscape:connector-curvature="0" /></g><g
           id="g3846"
           transform="translate(128.6872,176.4402)"><path
             d="M 0,0 0,0 C 0.278,0.462 0.597,0.905 0.946,1.311 -0.935,0.98 -2.614,0.075 -3.91,-1.217 c -1.641,-1.641 -2.659,-3.917 -2.659,-6.43 0,-2.509 1.018,-4.785 2.659,-6.43 1.645,-1.641 3.921,-2.659 6.43,-2.659 1.889,0 3.639,0.575 5.093,1.555 0.698,0.47 1.333,1.04 1.878,1.69 -0.564,-0.105 -1.138,-0.165 -1.728,-0.165 -2.494,0 -4.755,1.01 -6.388,2.647 -1.634,1.634 -2.649,3.896 -2.649,6.389 0,1.682 0.466,3.264 1.274,4.62 m 2.52,3.56 c 0.255,0 0.522,-0.007 0.8,-0.03 l 0.011,0 C 3.594,3.511 3.857,3.481 4.116,3.447 4.694,3.365 5.097,2.828 5.014,2.253 4.961,1.889 4.732,1.596 4.424,1.449 3.346,0.852 2.441,-0.027 1.81,-1.086 1.194,-2.114 0.841,-3.324 0.841,-4.62 c 0,-1.908 0.777,-3.639 2.032,-4.894 1.251,-1.251 2.982,-2.028 4.89,-2.028 0.661,0 1.296,0.094 1.893,0.26 0.62,0.176 1.202,0.435 1.735,0.762 0.496,0.308 1.146,0.154 1.454,-0.342 0.18,-0.296 0.199,-0.646 0.078,-0.947 l 0.004,0 c -0.838,-2.092 -2.291,-3.872 -4.135,-5.122 l 0,-0.004 c -1.788,-1.209 -3.947,-1.919 -6.272,-1.919 -3.092,0 -5.893,1.254 -7.917,3.282 l -0.008,0.008 -0.015,0.015 c -2.016,2.024 -3.267,4.822 -3.267,7.902 0,3.095 1.254,5.892 3.282,7.921 l 0.008,0.008 0.015,0.014 C -3.358,2.313 -0.564,3.56 2.52,3.56"
             style="fill:#00bce4;fill-opacity:1;fill-rule:nonzero;stroke:none"
             id="path3848"
             inkscape:connector-curvature="0" /></g></g></g></g></svg>